<?xml version="1.0" encoding="UTF-8" standalone="no" ?>
<!DOCTYPE svg PUBLIC "-//W3C//DTD SVG 1.1//EN" "http://www.w3.org/Graphics/SVG/1.1/DTD/svg11.dtd" >
<svg width="200" height="200" viewBox="0 0 200 200" >
 <text fill="GOLD" x="180.0" y="2.0" > id:0 ln:2600 </text>
 <path stroke="GOLD" fill="white" d="M 99 101 L 100 101 L 101 100 L 100 101 L 99 101 L 100 101 L 100 102 L 99 103 L 100 103 L 99 104 L 99 103 L 98 104 L 98 105 L 99 106 L 99 107 L 99 108 L 100 107 L 99 106 L 99 107 L 100 108 L 99 107 L 99 107 L 98 107 L 98 106 L 98 105 L 99 104 L 99 105 L 99 106 L 99 107 L 98 108 L 97 108 L 98 108 L 98 107 L 98 108 L 97 108 L 96 109 L 95 108 L 94 108 L 94 109 L 94 109 L 94 109 L 94 110 L 93 110 L 92 110 L 93 111 L 93 112 L 94 112 L 95 111 L 96 111 L 95 111 L 95 110 L 95 110 L 96 110 L 96 110 L 96 111 L 95 110 L 94 110 L 95 110 L 96 110 L 97 111 L 96 112 L 96 113 L 96 114 L 96 114 L 96 115 L 95 115 L 95 114 L 95 115 L 95 115 L 95 116 L 94 116 L 93 115 L 94 116 L 95 115 L 95 115 L 96 115 L 96 116 L 97 116 L 97 117 L 97 117 L 98 116 L 99 115 L 100 115 L 100 116 L 101 117 L 101 118 L 100 118 L 100 119 L 99 120 L 99 119 L 98 120 L 97 120 L 98 120 L 98 121 L 97 122 L 96 123 L 97 123 L 98 124 L 98 124 L 97 125 L 97 126 L 96 126 L 96 127 L 96 128 L 97 128 L 97 127 L 97 127 L 96 128 L 95 129 L 94 128 L 94 128 L 93 129 L 93 128 L 94 129 L 94 130 L 93 131 L 94 130 L 95 129 L 95 128 L 96 127 L 97 126 L 97 127 L 98 128 L 98 127 L 98 126 L 97 126 L 97 127 L 96 127 L 96 126 L 96 127 L 95 127 L 96 126 L 97 126 L 97 126 L 98 127 L 98 126 L 99 125 L 98 124 L 97 124 L 96 123 L 97 122 L 97 121 L 98 121 L 98 120 L 98 121 L 97 120 L 97 120 L 97 121 L 96 120 L 95 120 L 94 120 L 95 120 L 96 120 L 96 121 L 95 121 L 96 121 L 97 121 L 96 122 L 97 121 L 97 120 L 98 121 L 97 120 L 98 120 L 97 119 L 96 118 L 95 119 L 96 120 L 96 119 L 97 120 L 98 119 L 98 118 L 97 118 L 98 118 L 99 117 L 100 118 L 100 118 L 99 119 L 100 119 L 99 118 L 100 118 L 99 119 L 99 120 L 99 120 L 100 120 L 101 119 L 101 120 L 102 121 L 102 121 L 103 120 L 103 120 L 102 119 L 102 120 L 103 119 L 102 119 L 102 119 L 101 119 L 102 118 L 102 119 L 103 120 L 103 120 L 102 119 L 101 119 L 102 118 L 101 118 L 101 118 L 102 118 L 101 118 L 101 117 L 100 117 L 99 116 L 98 117 L 97 116 L 97 116 L 98 117 L 99 118 L 99 117 L 98 116 L 98 115 L 97 115 L 98 115 L 97 114 L 96 113 L 95 112 L 94 112 L 93 111 L 94 112 L 95 112 L 95 111 L 94 110 L 95 111 L 94 111 L 94 112 L 95 111 L 95 110 L 94 110 L 95 111 L 95 111 L 95 112 L 95 111 L 95 111 L 95 110 L 94 109 L 94 109 L 94 109 L 94 109 L 94 109 L 93 110 L 94 110 L 93 109 L 93 110 L 92 111 L 91 112 L 90 111 L 91 111 L 92 111 L 93 110 L 92 110 L 92 110 L 92 109 L 93 110 L 93 111 L 93 110 L 93 110 L 92 111 L 93 112 L 93 113 L 93 112 L 92 111 L 93 112 L 93 113 L 93 112 L 93 112 L 92 111 L 93 110 L 94 109 L 93 109 L 92 109 L 91 108 L 91 107 L 90 108 L 89 108 L 88 108 L 87 107 L 88 107 L 88 108 L 87 109 L 87 108 L 86 107 L 85 108 L 86 109 L 87 108 L 87 109 L 86 108 L 85 108 L 84 109 L 85 110 L 86 111 L 86 111 L 85 110 L 86 110 L 87 110 L 86 110 L 86 109 L 85 108 L 86 109 L 85 108 L 85 109 L 85 110 L 84 110 L 85 111 L 86 112 L 85 111 L 86 112 L 87 113 L 88 112 L 88 113 L 88 113 L 88 113 L 88 113 L 89 113 L 90 112 L 89 112 L 90 113 L 89 112 L 89 113 L 89 112 L 89 111 L 90 111 L 90 112 L 89 111 L 89 111 L 89 110 L 90 111 L 89 110 L 89 110 L 90 111 L 91 111 L 91 112 L 92 113 L 93 113 L 93 114 L 94 113 L 94 112 L 94 112 L 94 113 L 94 113 L 95 114 L 95 114 L 94 114 L 94 115 L 93 115 L 93 115 L 93 116 L 92 115 L 91 115 L 92 114 L 93 113 L 94 113 L 93 113 L 94 113 L 94 112 L 93 111 L 93 110 L 92 110 L 93 110 L 94 110 L 95 111 L 95 112 L 96 111 L 97 111 L 98 110 L 98 110 L 97 110 L 96 109 L 96 108 L 95 109 L 95 110 L 94 109 L 95 109 L 95 109 L 96 108 L 97 107 L 98 107 L 99 108 L 100 108 L 100 107 L 101 108 L 102 107 L 102 106 L 102 106 L 101 107 L 102 108 L 103 109 L 104 110 L 103 111 L 104 112 L 105 112 L 106 111 L 107 111 L 107 112 L 107 113 L 108 113 L 107 112 L 108 111 L 109 112 L 109 111 L 109 110 L 109 110 L 110 109 L 111 108 L 111 109 L 110 109 L 109 110 L 109 109 L 108 110 L 107 111 L 107 111 L 108 111 L 108 111 L 108 112 L 109 111 L 108 110 L 109 109 L 108 108 L 108 109 L 109 108 L 110 108 L 110 109 L 109 110 L 109 111 L 110 111 L 110 111 L 109 112 L 110 113 L 109 113 L 108 114 L 107 113 L 106 114 L 105 115 L 106 115 L 107 114 L 107 115 L 107 115 L 108 114 L 109 114 L 109 115 L 110 116 L 109 117 L 108 117 L 107 116 L 106 115 L 105 116 L 104 115 L 105 115 L 106 116 L 105 116 L 105 115 L 104 114 L 103 113 L 103 114 L 104 113 L 104 113 L 105 114 L 106 113 L 105 112 L 105 112 L 104 112 L 105 111 L 105 110 L 104 111 L 105 110 L 104 111 L 105 112 L 106 113 L 107 112 L 108 112 L 107 112 L 106 113 L 107 113 L 108 114 L 107 113 L 108 113 L 108 114 L 109 114 L 110 113 L 110 113 L 109 114 L 110 114 L 110 113 L 111 112 L 112 113 L 111 114 L 111 113 L 110 112 L 111 113 L 111 113 L 111 113 L 110 113 L 109 113 L 109 112 L 109 112 L 110 111 L 110 110 L 109 110 L 108 111 L 109 110 L 110 111 L 109 112 L 108 112 L 109 112 L 108 111 L 108 112 L 109 111 L 110 110 L 111 111 L 111 110 L 111 111 L 112 110 L 111 111 L 110 111 L 110 112 L 110 112 L 109 113 L 108 112 L 109 113 L 109 112 L 110 112 L 111 112 L 110 112 L 109 113 L 109 114 L 108 113 L 108 113 L 109 112 L 110 113 L 111 113 L 110 112 L 109 112 L 109 111 L 110 110 L 110 109 L 111 110 L 111 110 L 110 110 L 111 110 L 111 109 L 111 109 L 111 109 L 110 108 L 111 108 L 110 108 L 109 108 L 109 107 L 110 108 L 110 109 L 109 108 L 108 109 L 109 109 L 108 108 L 107 107 L 106 108 L 107 108 L 107 108 L 107 107 L 106 106 L 107 107 L 107 106 L 107 106 L 107 105 L 106 104 L 105 104 L 106 103 L 107 104 L 108 104 L 107 104 L 108 104 L 107 104 L 108 105 L 109 105 L 110 106 L 110 106 L 111 106 L 112 106 L 113 105 L 113 106 L 112 107 L 111 107 L 110 106 L 111 105 L 110 105 L 111 105 L 112 106 L 113 105 L 112 106 L 111 105 L 110 105 L 110 106 L 109 107 L 109 108 L 109 108 L 110 107 L 110 106 L 111 107 L 110 108 L 110 109 L 110 109 L 109 109 L 110 108 L 111 107 L 111 108 L 110 108 L 110 109 L 109 108 L 110 108 L 111 108 L 110 109 L 109 109 L 110 108 L 111 108 L 111 107 L 111 106 L 110 107 L 110 108 L 111 109 L 110 109 L 110 109 L 111 108 L 110 107 L 111 107 L 110 108 L 110 107 L 109 106 L 109 107 L 109 108 L 109 108 L 109 108 L 109 109 L 109 109 L 110 110 L 111 109 L 112 108 L 111 107 L 111 107 L 110 107 L 110 107 L 110 106 L 109 105 L 109 104 L 108 104 L 107 105 L 106 104 L 106 105 L 107 106 L 106 106 L 105 107 L 105 106 L 104 107 L 103 107 L 103 107 L 103 106 L 104 105 L 103 104 L 102 103 L 103 103 L 102 103 L 103 102 L 104 102 L 105 101 L 106 100 L 107 99 L 106 100 L 105 99 L 105 98 L 106 98 L 107 99 L 107 100 L 107 100 L 108 101 L 108 100 L 108 100 L 107 100 L 108 100 L 109 99 L 108 100 L 108 100 L 108 101 L 109 102 L 108 101 L 108 102 L 109 103 L 110 104 L 111 103 L 111 104 L 111 104 L 111 103 L 112 103 L 113 102 L 114 101 L 113 101 L 113 101 L 112 102 L 113 102 L 114 101 L 114 101 L 114 101 L 114 101 L 115 102 L 116 102 L 115 103 L 115 102 L 115 101 L 116 100 L 115 101 L 116 100 L 117 99 L 118 100 L 117 101 L 116 101 L 116 102 L 117 102 L 116 103 L 116 102 L 116 103 L 117 102 L 117 103 L 116 102 L 117 101 L 116 100 L 115 101 L 114 101 L 114 100 L 115 99 L 115 98 L 116 98 L 117 99 L 116 98 L 116 98 L 117 98 L 116 98 L 115 97 L 116 96 L 117 96 L 117 95 L 116 94 L 115 93 L 116 94 L 115 94 L 116 94 L 116 93 L 116 93 L 116 94 L 117 94 L 116 94 L 115 94 L 115 93 L 116 92 L 115 91 L 115 91 L 114 92 L 115 92 L 116 91 L 116 92 L 116 91 L 115 90 L 116 90 L 117 91 L 116 90 L 117 89 L 117 89 L 117 88 L 118 89 L 118 88 L 117 87 L 117 86 L 117 85 L 116 86 L 117 85 L 118 85 L 118 85 L 117 86 L 118 86 L 117 85 L 118 85 L 117 86 L 117 87 L 118 87 L 118 86 L 117 87 L 116 87 L 115 86 L 116 87 L 117 87 L 116 86 L 115 86 L 116 86 L 116 87 L 116 87 L 117 86 L 116 86 L 115 86 L 114 85 L 113 86 L 114 86 L 113 85 L 113 84 L 113 85 L 114 84 L 114 84 L 113 85 L 113 84 L 114 84 L 113 85 L 114 86 L 115 87 L 114 86 L 114 87 L 114 87 L 115 88 L 115 89 L 115 89 L 114 90 L 115 91 L 115 91 L 116 90 L 115 91 L 114 91 L 115 90 L 114 91 L 113 90 L 113 91 L 113 91 L 112 92 L 112 93 L 113 93 L 112 92 L 111 92 L 112 93 L 111 93 L 110 94 L 110 94 L 111 95 L 111 94 L 111 93 L 110 92 L 110 91 L 110 92 L 111 93 L 112 93 L 113 93 L 114 92 L 114 92 L 114 91 L 114 91 L 113 92 L 112 92 L 113 92 L 113 93 L 112 94 L 113 93 L 113 94 L 112 93 L 113 92 L 113 93 L 112 92 L 113 91 L 112 90 L 113 91 L 113 92 L 113 91 L 112 92 L 112 92 L 111 93 L 111 93 L 112 92 L 112 93 L 113 94 L 114 95 L 113 94 L 114 93 L 114 94 L 114 94 L 114 94 L 114 93 L 114 93 L 113 93 L 113 92 L 114 91 L 115 92 L 116 91 L 115 92 L 114 92 L 113 92 L 114 91 L 113 91 L 113 91 L 112 90 L 112 90 L 113 89 L 113 89 L 113 89 L 112 90 L 111 91 L 111 90 L 112 90 L 111 90 L 110 90 L 109 91 L 110 91 L 110 91 L 109 92 L 110 91 L 110 90 L 109 89 L 109 89 L 108 90 L 108 89 L 109 90 L 108 91 L 107 92 L 108 93 L 109 92 L 108 92 L 108 93 L 108 93 L 109 92 L 108 92 L 108 93 L 108 93 L 108 93 L 108 92 L 108 93 L 107 92 L 106 91 L 107 91 L 107 91 L 106 91 L 105 91 L 105 92 L 104 93 L 103 93 L 103 94 L 103 93 L 104 92 L 104 91 L 103 91 L 102 91 L 101 90 L 102 89 L 101 88 L 102 88 L 103 89 L 104 90 L 105 91 L 104 91 L 104 91 L 105 91 L 104 91 L 104 90 L 103 90 L 102 91 L 102 92 L 102 91 L 101 92 L 100 92 L 101 91 L 100 91 L 99 90 L 99 90 L 99 91 L 100 92 L 100 92 L 100 92 L 101 93 L 102 94 L 101 93 L 101 94 L 101 95 L 102 95 L 103 95 L 104 95 L 103 95 L 104 96 L 105 95 L 104 96 L 105 95 L 104 95 L 103 96 L 104 95 L 105 95 L 104 94 L 104 95 L 105 96 L 104 95 L 105 94 L 106 94 L 107 95 L 106 96 L 107 97 L 108 96 L 109 97 L 108 96 L 107 97 L 107 97 L 108 98 L 109 97 L 108 98 L 109 98 L 110 99 L 111 99 L 112 99 L 112 99 L 112 98 L 112 97 L 113 98 L 114 99 L 114 100 L 113 99 L 114 98 L 115 97 L 114 97 L 113 96 L 112 96 L 111 95 L 110 96 L 111 95 L 112 96 L 113 97 L 113 97 L 114 97 L 114 96 L 115 97 L 115 97 L 116 97 L 117 98 L 117 99 L 116 99 L 116 100 L 117 100 L 117 101 L 117 102 L 116 103 L 115 104 L 115 103 L 115 102 L 116 101 L 115 101 L 116 102 L 117 101 L 118 102 L 118 102 L 118 102 L 118 102 L 118 103 L 118 104 L 118 105 L 119 106 L 119 106 L 119 107 L 119 106 L 118 106 L 118 105 L 119 104 L 118 104 L 117 105 L 118 104 L 118 103 L 119 102 L 120 102 L 121 103 L 122 102 L 123 101 L 123 101 L 123 100 L 124 101 L 124 101 L 123 100 L 122 99 L 121 98 L 120 98 L 119 99 L 118 99 L 117 99 L 118 100 L 118 100 L 118 99 L 118 98 L 117 98 L 116 99 L 115 100 L 116 99 L 115 99 L 115 99 L 115 99 L 116 100 L 117 99 L 118 98 L 118 98 L 119 98 L 119 99 L 118 100 L 117 101 L 117 100 L 116 99 L 116 100 L 115 100 L 114 99 L 114 99 L 114 98 L 113 99 L 112 98 L 112 97 L 112 97 L 111 98 L 112 99 L 112 100 L 113 101 L 113 100 L 114 100 L 113 100 L 113 101 L 113 100 L 113 99 L 112 100 L 112 101 L 113 102 L 112 103 L 113 103 L 114 103 L 113 102 L 114 103 L 115 103 L 114 104 L 114 104 L 114 104 L 114 104 L 114 105 L 114 104 L 113 103 L 113 103 L 114 103 L 115 104 L 115 104 L 114 104 L 115 103 L 114 103 L 113 104 L 112 104 L 113 105 L 113 104 L 114 104 L 113 105 L 112 105 L 112 106 L 112 105 L 112 104 L 113 104 L 112 104 L 112 105 L 112 105 L 111 104 L 112 103 L 112 103 L 111 102 L 111 102 L 111 102 L 110 102 L 111 102 L 112 103 L 112 103 L 112 102 L 111 101 L 110 100 L 111 100 L 110 100 L 109 99 L 109 98 L 109 98 L 110 98 L 110 98 L 110 99 L 110 98 L 110 99 L 110 99 L 111 99 L 110 100 L 110 101 L 109 102 L 110 101 L 110 102 L 109 103 L 108 104 L 108 103 L 107 103 L 106 104 L 105 104 L 106 104 L 106 104 L 107 105 L 106 104 L 107 103 L 107 102 L 108 101 L 109 100 L 110 99 L 109 100 L 110 100 L 109 99 L 109 99 L 108 98 L 109 97 L 108 98 L 107 97 L 106 96 L 105 97 L 104 97 L 103 97 L 102 96 L 102 95 L 102 95 L 102 95 L 103 94 L 102 93 L 101 92 L 100 91 L 99 91 L 99 91 L 99 92 L 98 93 L 99 94 L 98 95 L 99 94 L 100 94 L 100 95 L 99 94 L 100 94 L 100 94 L 99 94 L 100 95 L 101 94 L 102 95 L 102 94 L 102 94 L 101 95 L 100 95 L 100 94 L 100 95 L 99 94 L 98 93 L 97 93 L 97 92 L 96 91 L 95 90 L 96 89 L 96 88 L 97 87 L 97 86 L 97 87 L 98 87 L 97 87 L 98 87 L 98 87 L 98 86 L 97 87 L 96 87 L 95 86 L 96 85 L 97 84 L 96 83 L 96 83 L 97 84 L 96 83 L 95 82 L 95 82 L 96 82 L 96 81 L 95 80 L 94 79 L 94 78 L 95 79 L 95 79 L 94 78 L 95 78 L 94 77 L 95 77 L 96 77 L 96 76 L 97 76 L 97 75 L 96 74 L 95 73 L 96 72 L 96 72 L 97 71 L 96 72 L 96 71 L 96 72 L 95 72 L 94 71 L 93 70 L 93 71 L 93 70 L 94 71 L 93 72 L 93 73 L 94 72 L 93 73 L 93 74 L 92 73 L 92 74 L 93 75 L 93 75 L 92 74 L 92 75 L 92 76 L 92 76 L 91 76 L 92 77 L 91 76 L 90 75 L 89 74 L 88 75 L 89 75 L 90 76 L 91 76 L 92 77 L 93 76 L 94 76 L 94 75 L 93 74 L 93 74 L 92 73 L 91 73 L 91 73 L 91 74 L 92 74 L 93 73 L 92 73 L 91 73 L 91 73 L 92 72 L 91 73 L 90 73 L 89 73 L 89 73 L 88 72 L 88 72 L 87 71 L 87 72 L 87 71 L 88 70 L 89 69 L 89 69 L 89 69 L 88 70 L 88 70 L 88 71 L 89 72 L 89 72 L 88 71 L 89 71 L 90 72 L 90 71 L 90 72 L 89 71 L 89 71 L 89 72 L 88 72 L 89 71 L 89 72 L 88 73 L 89 74 L 88 75 L 89 75 L 90 74 L 89 74 L 88 73 L 87 72 L 87 71 L 88 71 L 88 70 L 88 71 L 89 72 L 88 71 L 89 72 L 88 71 L 88 71 L 87 70 L 87 71 L 88 70 L 89 70 L 89 69 L 89 68 L 88 67 L 89 67 L 89 66 L 89 66 L 90 67 L 89 67 L 89 68 L 90 67 L 91 68 L 90 67 L 90 67 L 91 67 L 91 67 L 91 66 L 92 65 L 91 66 L 91 65 L 91 66 L 90 65 L 90 66 L 89 65 L 90 65 L 90 66 L 90 67 L 91 66 L 91 67 L 92 68 L 92 69 L 93 69 L 93 70 L 92 70 L 92 71 L 91 70 L 91 71 L 90 70 L 91 70 L 92 71 L 93 72 L 94 73 L 93 72 L 93 72 L 92 73 L 91 72 L 91 73 L 92 73 L 92 73 L 93 72 L 92 72 L 92 72 L 93 73 L 92 72 L 93 73 L 92 73 L 92 72 L 91 73 L 90 73 L 89 74 L 90 73 L 91 72 L 90 72 L 90 72 L 90 72 L 89 71 L 90 70 L 89 70 L 89 70 L 89 69 L 90 69 L 90 68 L 90 68 L 91 69 L 90 70 L 90 71 L 91 71 L 92 72 L 92 71 L 93 71 L 93 71 L 94 72 L 95 73 L 94 73 L 95 74 L 94 75 L 94 74 L 95 74 L 94 74 L 95 75 L 95 75 L 94 76 L 94 76 L 93 76 L 92 77 L 91 78 L 92 79 L 91 80 L 90 80 L 90 81 L 89 80 L 89 81 L 88 80 L 87 80 L 87 80 L 88 81 L 89 81 L 90 80 L 90 79 L 91 78 L 91 77 L 91 77 L 92 78 L 91 77 L 90 77 L 90 76 L 89 76 L 90 76 L 89 77 L 90 78 L 90 79 L 90 78 L 90 77 L 91 77 L 91 76 L 92 75 L 92 75 L 93 76 L 93 75 L 94 75 L 95 75 L 96 74 L 97 74 L 97 73 L 98 74 L 97 75 L 98 75 L 98 76 L 97 77 L 97 78 L 98 77 L 98 78 L 99 77 L 98 77 L 97 76 L 98 77 L 99 77 L 99 78 L 100 78 L 100 78 L 99 78 L 99 77 L 100 77 L 100 77 L 101 77 L 100 76 L 101 77 L 100 78 L 100 77 L 101 77 L 100 78 L 101 78 L 100 79 L 101 80 L 101 80 L 100 80 L 99 81 L 98 82 L 97 82 L 96 81 L 97 80 L 96 80 L 97 80 L 98 81 L 97 82 L 98 82 L 98 81 L 99 82 L 100 81 L 99 80 L 100 80 L 99 81 L 99 80 L 100 81 L 101 81 L 102 81 L 101 82 L 102 81 L 102 80 L 103 81 L 103 81 L 102 81 L 101 80 L 101 80 L 101 81 L 102 81 L 103 82 L 103 83 L 104 83 L 104 82 L 103 82 L 102 83 L 102 82 L 102 81 L 101 80 L 102 81 L 101 81 L 100 81 L 101 82 L 102 81 L 102 81 L 103 80 L 102 79 L 101 80 L 102 81 L 103 82 L 103 83 L 102 83 L 101 82 L 100 82 L 101 82 L 101 81 L 100 80 L 100 81 L 100 81 L 101 82 L 102 82 L 102 82 L 102 82 L 103 81 L 103 81 L 103 82 L 102 83 L 103 82 L 104 82 L 105 83 L 105 83 L 104 82 L 105 82 L 106 82 L 106 81 L 106 80 L 107 80 L 108 81 L 109 81 L 109 82 L 110 83 L 111 82 L 111 83 L 112 82 L 111 83 L 112 83 L 112 84 L 111 85 L 110 84 L 110 84 L 109 84 L 108 85 L 108 84 L 107 85 L 107 84 L 107 83 L 108 82 L 108 82 L 107 81 L 106 82 L 107 82 L 107 82 L 107 82 L 106 83 L 107 84 L 107 83 L 106 83 L 105 84 L 105 83 L 105 84 L 106 84 L 105 84 L 106 84 L 106 84 L 106 85 L 105 85 L 104 86 L 104 87 L 103 88 L 102 89 L 101 88 L 102 89 L 103 89 L 103 88 L 103 88 L 102 87 L 101 86 L 101 85 L 100 84 L 101 85 L 100 84 L 100 85 L 100 84 L 101 85 L 102 85 L 102 86 L 101 87 L 102 88 L 102 88 L 103 87 L 103 86 L 104 85 L 105 86 L 105 86 L 105 87 L 104 88 L 104 89 L 103 90 L 104 91 L 105 91 L 105 90 L 106 89 L 107 89 L 108 89 L 107 89 L 107 90 L 108 90 L 107 89 L 108 89 L 109 88 L 109 89 L 109 89 L 110 88 L 110 88 L 109 89 L 110 90 L 111 89 L 110 88 L 110 88 L 111 88 L 110 87 L 109 87 L 110 88 L 109 87 L 108 87 L 107 87 L 106 87 L 105 88 L 105 89 L 105 88 L 104 88 L 103 87 L 104 87 L 104 87 L 104 86 L 104 86 L 105 86 L 106 86 L 107 85 L 107 85 L 107 85 L 108 85 L 109 85 L 108 86 L 109 85 L 110 85 L 110 85 L 110 85 L 111 86 L 111 86 L 110 85 L 110 84 L 109 84 L 110 84 L 109 85 L 109 84 L 110 83 L 109 82 L 108 81 L 108 80 L 107 79 L 107 78 L 106 79 L 107 79 L 108 79 L 108 80 L 107 79 L 107 79 L 107 78 L 108 78 L 107 78 L 107 77 L 107 78 L 108 78 L 108 78 L 109 78 L 109 78 L 108 77 L 109 76 L 109 76 L 109 76 L 110 77 L 111 77 L 112 76 L 112 76 L 111 75 L 111 74 L 111 75 L 110 74 L 109 75 L 109 74 L 108 75 L 109 74 L 110 73 L 111 74 L 110 74 L 110 74 L 111 73 L 112 72 L 113 72 L 112 73 L 111 72 L 110 72 L 110 73 L 111 73 L 112 74 L 112 74 L 111 75 L 111 74 L 111 73 L 111 72 L 111 73 L 111 74 L 110 73 L 111 73 L 111 74 L 112 73 L 113 73 L 112 74 L 111 74 L 112 75 L 113 74 L 112 73 L 112 74 L 112 74 L 113 75 L 113 75 L 112 76 L 113 77 L 112 77 L 112 77 L 112 76 L 113 75 L 113 75 L 113 74 L 114 74 L 115 73 L 114 72 L 113 73 L 113 73 L 114 73 L 113 72 L 112 72 L 112 73 L 112 73 L 111 73 L 111 74 L 110 74 L 111 74 L 110 73 L 110 73 L 109 74 L 108 73 L 107 74 L 106 75 L 105 75 L 104 76 L 105 77 L 105 78 L 104 78 L 105 79 L 105 80 L 106 80 L 106 80 L 107 81 L 107 81 L 106 82 L 105 81 L 105 81 L 105 81 L 105 82 L 105 81 L 106 82 L 106 83 L 105 82 L 106 82 L 106 82 L 105 81 L 106 80 L 105 81 L 104 82 L 103 83 L 104 84 L 103 84 L 104 83 L 105 83 L 104 82 L 104 82 L 104 82 L 103 82 L 102 82 L 103 83 L 103 82 L 104 81 L 104 81 L 105 82 L 105 83 L 104 83 L 104 83 L 103 84 L 104 83 L 104 82 L 103 82 L 104 81 L 104 81 L 103 81 L 102 80 L 102 80 L 102 79 L 102 79 L 101 79 L 101 79 L 100 79 L 99 80 L 99 79 L 99 80 L 100 80 L 99 81 L 99 82 L 98 83 L 99 84 L 100 85 L 100 86 L 99 87 L 98 87 L 99 86 L 100 86 L 99 86 L 99 86 L 100 86 L 100 85 L 99 85 L 100 85 L 99 86 L 98 85 L 99 84 L 98 83 L 98 84 L 98 83 L 98 82 L 98 82 L 99 81 L 98 80 L 98 81 L 97 81 L 98 80 L 98 81 L 98 82 L 98 81 L 97 81 L 98 81 L 98 81 L 99 80 L 100 81 L 101 82 L 102 83 L 101 84 L 101 84 L 102 84 L 103 85 L 103 85 L 104 84 L 104 85 L 104 84 L 105 85 L 105 86 L 105 85 L 104 84 L 103 85 L 103 84 L 102 84 L 102 85 L 102 84 L 101 83 L 100 84 L 100 84 L 100 85 L 101 86 L 100 87 L 101 88 L 102 89 L 103 88 L 103 87 L 102 86 L 101 85 L 102 86 L 101 87 L 100 88 L 101 87 L 102 88 L 103 87 L 102 87 L 101 88 L 100 89 L 101 88 L 101 89 L 101 88 L 100 87 L 101 87 L 102 88 L 101 88 L 102 89 L 101 90 L 101 90 L 100 91 L 101 90 L 100 90 L 100 90 L 101 90 L 101 91 L 101 92 L 100 91 L 101 90 L 100 91 L 99 90 L 98 91 L 99 91 L 98 90 L 97 91 L 96 92 L 95 93 L 95 94 L 94 93 L 94 92 L 95 93 L 95 92 L 94 91 L 94 91 L 94 91 L 95 92 L 94 92 L 93 93 L 92 92 L 92 91 L 91 90 L 90 89 L 91 89 L 90 90 L 89 89 L 89 88 L 90 87 L 89 86 L 90 87 L 91 87 L 91 86 L 91 87 L 92 88 L 91 89 L 91 90 L 91 89 L 90 88 L 89 89 L 90 88 L 91 88 L 92 87 L 93 86 L 92 85 L 91 86 L 90 87 L 91 87 L 92 88 L 91 88 L 91 87 L 91 86 L 92 85 L 91 85 L 92 86 L 92 85 L 92 84 L 93 85 L 92 86 L 92 87 L 92 87 L 92 87 L 91 87 L 90 86 L 89 87 L 88 86 L 89 86 L 89 85 L 90 85 L 89 86 L 90 85 L 90 85 L 90 84 L 89 84 L 89 85 L 88 86 L 87 86 L 86 87 L 85 86 L 86 85 L 85 86 L 85 86 L 85 85 L 84 85 L 85 86 L 86 86 L 86 86 L 86 85 L 87 85 L 88 84 L 88 85 L 89 84 L 88 83 L 89 82 L 89 82 L 90 81 L 91 80 L 91 80 L 92 79 L 93 79 L 93 78 L 93 78 L 94 79 L 95 78 L 94 79 L 94 80 L 93 81 L 92 82 L 92 81 L 92 82 L 93 81 L 92 82 L 93 83 L 94 83 L 93 84 L 93 84 L 93 83 L 92 84 L 93 83 L 93 83 L 93 83 L 94 84 L 95 83 L 95 82 L 95 81 L 95 80 L 94 79 L 94 78 L 94 77 L 93 78 L 93 77 L 93 78 L 93 77 L 92 76 L 91 75 L 92 76 L 93 77 L 92 78 L 93 78 L 93 79 L 92 80 L 92 81 L 93 81 L 94 81 L 95 81 L 95 80 L 96 80 L 97 79 L 96 80 L 97 81 L 96 80 L 97 80 L 96 79 L 95 78 L 94 78 L 95 77 L 95 78 L 95 77 L 94 78 L 95 79 L 94 79 L 94 79 L 94 80 L 94 79 L 95 79 L 96 79 L 97 78 L 96 79 L 97 79 L 96 78 L 97 79 L 98 78 L 97 78 L 97 78 L 97 77 L 96 78 L 95 77 L 94 77 L 95 78 L 94 78 L 95 77 L 96 77 L 95 77 L 94 78 L 93 78 L 93 77 L 92 78 L 91 79 L 90 78 L 90 79 L 90 78 L 89 79 L 88 80 L 89 81 L 89 81 L 88 82 L 89 83 L 88 83 L 89 82 L 90 83 L 90 82 L 89 81 L 89 80 L 88 79 L 88 78 L 88 77 L 89 77 L 89 77 L 90 78 L 91 79 L 91 80 L 90 80 L 90 80 L 90 79 L 90 79 L 90 80 L 89 81 L 90 82 L 90 81 L 89 81 L 89 82 L 90 83 L 90 84 L 90 84 L 90 85 L 91 85 L 91 84 L 90 83 L 89 83 L 89 82 L 89 81 L 89 80 L 90 80 L 90 79 L 91 78 L 91 79 L 91 80 L 90 79 L 90 79 L 89 78 L 89 77 L 90 76 L 91 75 L 92 74 L 91 74 L 91 75 L 91 74 L 91 73 L 92 74 L 93 73 L 92 73 L 92 74 L 92 75 L 91 74 L 91 73 L 92 73 L 92 72 L 91 71 L 90 71 L 90 71 L 90 72 L 91 72 L 90 71 L 89 72 L 90 71 L 89 72 L 88 72 L 89 73 L 90 74 L 91 75 L 91 74 L 92 74 L 92 73 L 93 73 L 92 73 L 92 72 L 91 71 L 92 71 L 93 70 L 94 69 L 93 70 L 94 70 L 93 71 L 92 71 L 93 70 L 93 71 L 93 72 L 94 72 L 93 71 L 94 71 L 95 70 L 94 69 L 95 68 L 96 69 L 96 68 L 95 69 L 94 69 L 93 69 L 93 69 L 92 70 L 92 71 L 91 71 L 91 71 L 90 72 L 90 72 L 89 71 L 88 72 L 88 73 L 89 72 L 90 73 L 90 73 L 91 74 L 91 73 L 92 72 L 93 72 L 93 73 L 92 74 L 92 74 L 92 74 L 93 74 L 93 73 L 94 72 L 93 72 L 92 72 L 91 73 L 92 74 L 92 74 L 93 74 L 92 74 L 93 74 L 94 75 L 94 75 L 95 76 L 94 75 L 93 74 L 93 73 L 92 72 L 91 71 L 92 70 L 91 69 L 91 70 L 92 69 L 92 70 L 92 71 L 92 71 L 93 70 L 92 69 L 92 70 L 92 70 L 93 70 L 93 69 L 92 68 L 93 67 L 93 66 L 93 67 L 93 68 L 93 67 L 93 68 L 92 67 L 93 67 L 92 67 L 92 68 L 92 67 L 93 67 L 94 68 L 93 69 L 92 69 L 91 69 L 90 69 L 89 70 L 89 71 L 90 72 L 91 71 L 90 71 L 91 72 L 92 72 L 93 73 L 93 74 L 92 74 L 92 75 L 91 76 L 92 75 L 91 74 L 91 74 L 90 75 L 89 76 L 90 75 L 90 76 L 91 77 L 91 77 L 92 76 L 91 76 L 91 75 L 92 75 L 91 75 L 92 74 L 93 75 L 92 74 L 91 75 L 90 74 L 90 73 L 91 74 L 91 75 L 92 74 L 93 74 L 93 73 L 94 74 L 93 74 L 93 73 L 92 73 L 91 73 L 91 72 L 91 73 L 91 74 L 91 75 L 91 76 L 90 75 L 91 75 L 91 75 L 92 74 L 92 75 L 93 74 L 93 75 L 93 76 L 93 76 L 93 75 L 93 75 L 94 75 L 93 76 L 92 77 L 91 76 L 92 75 L 91 74 L 90 75 L 91 75 L 91 76 L 90 75 L 89 75 L 90 76 L 89 76 L 88 77 L 87 76 L 87 77 L 88 78 L 88 79 L 87 80 L 86 79 L 86 79 L 87 79 L 86 80 L 87 79 L 86 79 L 86 80 L 85 81 L 84 80 L 84 79 L 84 80 L 85 79 L 84 79 L 85 78 L 85 79 L 84 79 L 84 80 L 84 79 L 83 80 L 84 80 L 84 79 L 85 79 L 86 78 L 85 77 L 86 76 L 85 77 L 84 78 L 84 79 L 84 79 L 84 79 L 85 78 L 84 77 L 85 78 L 86 79 L 87 80 L 87 80 L 88 79 L 88 79 L 89 80 L 88 80 L 88 81 L 87 80 L 86 79 L 86 80 L 87 79 L 87 80 L 87 80 L 86 79 L 86 80 L 87 80 L 86 80 L 87 80 L 88 79 L 88 78 L 88 79 L 87 80 L 88 80 L 89 80 L 88 80 L 87 79 L 86 80 L 87 81 L 87 81 L 87 82 L 88 83 L 88 83 L 89 83 L 88 84 L 88 83 L 87 82 L 88 83 L 88 82 L 89 81 L 90 82 L 89 82 L 90 83 L 90 84 L 91 84 L 91 85 L 91 86 L 92 87 L 93 86 L 93 87 L 93 88 L 93 89 L 93 89 L 92 90 L 92 91 L 92 92 L 91 93 L 92 93 L 92 94 L 92 94 L 93 95 L 92 95 L 92 96 L 92 96 L 91 95 L 92 96 L 92 97 L 92 97 L 93 96 L 94 96 L 93 97 L 92 98 L 93 98 L 94 99 L 95 99 L 95 98 L 95 97 L 96 97 L 97 97 L 96 97 L 97 96 L 98 97 L 97 97 L 96 97 L 97 97 L 97 96 L 98 95 L 97 95 L 97 94 L 96 95 L 95 94 L 95 94 L 94 95 L 93 94 L 92 95 L 91 96 L 92 96 L 92 97 L 93 96 L 94 96 L 93 95 L 93 96 L 92 96 L 92 95" />
 <text fill="PALETURQUOISE" x="180.0" y="2.0" > id:1 ln:2363 </text>
 <path stroke="PALETURQUOISE" fill="white" d="M 83 79 L 82 80 L 82 79 L 81 79 L 80 80 L 81 79 L 80 78 L 79 78 L 78 79 L 77 78 L 78 77 L 77 77 L 78 77 L 78 76 L 79 76 L 79 76 L 78 77 L 78 77 L 79 76 L 80 77 L 79 76 L 78 76 L 79 77 L 78 77 L 78 78 L 79 77 L 80 76 L 79 77 L 79 78 L 80 79 L 81 80 L 81 81 L 81 80 L 81 81 L 80 81 L 79 80 L 79 80 L 80 80 L 80 79 L 80 78 L 80 79 L 81 80 L 80 81 L 81 80 L 81 80 L 81 80 L 80 79 L 81 80 L 80 81 L 79 82 L 78 82 L 77 82 L 76 83 L 77 82 L 76 82 L 75 82 L 75 82 L 75 81 L 76 82 L 76 82 L 76 81 L 77 81 L 78 82 L 79 81 L 78 81 L 79 82 L 80 81 L 81 81 L 81 80 L 80 81 L 79 82 L 80 82 L 81 83 L 80 82 L 79 82 L 80 83 L 79 84 L 80 84 L 79 85 L 80 84 L 79 85 L 79 84 L 80 84 L 80 84 L 79 85 L 79 84 L 80 84 L 81 83 L 81 84 L 80 83 L 81 82 L 81 82 L 81 81 L 80 80 L 80 79 L 80 78 L 79 79 L 80 79 L 81 79 L 81 78 L 81 77 L 82 76 L 81 77 L 80 77 L 79 76 L 79 75 L 79 76 L 80 76 L 80 77 L 79 78 L 79 77 L 79 78 L 80 78 L 80 78 L 79 78 L 79 77 L 79 77 L 79 78 L 80 77 L 79 77 L 78 76 L 79 75 L 78 74 L 77 75 L 78 75 L 79 74 L 79 75 L 79 76 L 78 76 L 78 76 L 79 76 L 78 76 L 79 77 L 78 77 L 77 78 L 76 79 L 75 78 L 76 79 L 75 78 L 76 77 L 76 77 L 77 78 L 77 77 L 77 78 L 76 79 L 76 80 L 75 80 L 75 80 L 75 80 L 75 80 L 74 81 L 74 81 L 75 82 L 75 83 L 74 83 L 75 82 L 75 81 L 75 80 L 75 79 L 75 78 L 74 79 L 73 80 L 73 79 L 74 78 L 75 79 L 75 79 L 76 80 L 75 79 L 76 79 L 77 80 L 78 80 L 77 80 L 77 79 L 76 79 L 77 79 L 78 79 L 79 78 L 79 77 L 78 78 L 79 79 L 80 80 L 79 81 L 78 82 L 78 82 L 78 83 L 78 84 L 78 85 L 78 85 L 78 85 L 78 85 L 79 84 L 78 83 L 79 82 L 79 81 L 80 81 L 79 81 L 78 80 L 78 79 L 79 80 L 80 80 L 79 80 L 80 79 L 80 78 L 80 78 L 79 79 L 78 78 L 77 77 L 76 77 L 76 77 L 76 76 L 76 75 L 76 75 L 75 76 L 75 75 L 76 76 L 76 76 L 75 75 L 75 74 L 76 74 L 75 75 L 74 75 L 74 74 L 74 75 L 74 75 L 73 74 L 74 75 L 75 76 L 76 75 L 77 75 L 76 75 L 75 76 L 75 77 L 75 77 L 76 76 L 76 77 L 76 76 L 76 75 L 76 74 L 76 73 L 75 72 L 75 73 L 76 73 L 75 72 L 74 71 L 74 72 L 73 72 L 73 72 L 73 73 L 73 73 L 72 73 L 72 74 L 73 74 L 72 75 L 72 75 L 73 76 L 74 77 L 74 76 L 74 76 L 75 77 L 74 78 L 75 77 L 74 78 L 73 79 L 74 78 L 75 79 L 76 78 L 77 78 L 78 77 L 77 77 L 77 78 L 76 79 L 75 79 L 74 79 L 74 80 L 75 80 L 76 81 L 75 80 L 75 80 L 74 81 L 75 82 L 74 83 L 74 83 L 75 82 L 74 83 L 74 84 L 75 85 L 74 86 L 73 87 L 73 86 L 74 87 L 74 87 L 74 88 L 73 89 L 72 88 L 71 89 L 71 89 L 71 88 L 70 88 L 70 88 L 69 89 L 70 89 L 71 88 L 70 88 L 70 87 L 71 87 L 70 88 L 71 89 L 72 88 L 71 88 L 71 88 L 71 88 L 72 88 L 73 87 L 73 86 L 72 85 L 72 86 L 71 87 L 71 88 L 72 88 L 72 89 L 73 89 L 72 88 L 73 89 L 72 89 L 71 88 L 70 88 L 71 88 L 72 87 L 73 86 L 73 86 L 72 86 L 73 86 L 74 85 L 74 84 L 74 85 L 75 86 L 76 86 L 77 87 L 78 86 L 78 87 L 79 87 L 78 86 L 77 85 L 77 85 L 77 85 L 76 85 L 75 86 L 74 85 L 75 84 L 76 85 L 76 86 L 75 85 L 75 84 L 76 84 L 75 84 L 75 85 L 76 84 L 75 85 L 75 86 L 75 85 L 74 86 L 73 85 L 72 86 L 71 85 L 70 84 L 70 83 L 70 82 L 71 83 L 70 83 L 71 82 L 72 83 L 71 82 L 70 81 L 70 80 L 70 80 L 71 81 L 71 82 L 72 81 L 72 81 L 71 80 L 70 79 L 70 79 L 71 80 L 70 80 L 69 81 L 68 80 L 69 80 L 68 81 L 67 82 L 68 81 L 69 81 L 68 81 L 69 82 L 70 81 L 71 81 L 71 81 L 72 82 L 73 81 L 73 81 L 74 81 L 74 81 L 74 80 L 75 81 L 76 80 L 76 81 L 77 80 L 77 80 L 76 79 L 77 79 L 78 79 L 77 80 L 76 81 L 75 81 L 75 80 L 76 80 L 76 81 L 75 82 L 76 83 L 76 82 L 76 83 L 76 84 L 76 83 L 77 84 L 78 84 L 78 84 L 78 84 L 79 84 L 79 85 L 79 86 L 78 87 L 78 88 L 78 87 L 79 88 L 80 88 L 79 87 L 79 87 L 79 87 L 78 86 L 77 86 L 77 86 L 78 86 L 78 87 L 77 87 L 77 88 L 78 89 L 79 90 L 78 90 L 79 91 L 80 92 L 81 93 L 80 92 L 81 93 L 80 93 L 81 93 L 81 93 L 81 94 L 82 94 L 81 94 L 80 95 L 81 94 L 80 95 L 81 96 L 80 95 L 81 96 L 80 95 L 81 96 L 82 96 L 81 96 L 81 96 L 81 97 L 82 97 L 81 98 L 80 99 L 80 98 L 80 97 L 81 97 L 81 97 L 82 97 L 81 97 L 81 96 L 80 97 L 79 96 L 78 95 L 77 94 L 76 95 L 75 95 L 74 94 L 74 94 L 73 95 L 72 95 L 73 95 L 72 95 L 72 94 L 72 94 L 71 93 L 70 93 L 69 92 L 69 91 L 69 91 L 70 90 L 71 89 L 71 88 L 70 88 L 69 88 L 70 87 L 70 88 L 71 88 L 71 89 L 70 88 L 71 88 L 70 87 L 71 86 L 71 87 L 70 87 L 70 86 L 70 86 L 69 86 L 68 86 L 68 86 L 67 87 L 68 88 L 67 89 L 66 88 L 67 87 L 67 88 L 66 87 L 65 87 L 65 87 L 66 86 L 67 87 L 68 88 L 67 87 L 67 87 L 67 86 L 67 86 L 67 85 L 66 84 L 66 83 L 67 84 L 67 85 L 66 85 L 67 85 L 68 86 L 67 87 L 68 86 L 67 85 L 66 85 L 66 84 L 67 85 L 68 84 L 67 83 L 68 82 L 68 83 L 69 84 L 69 84 L 68 84 L 69 84 L 68 84 L 67 84 L 67 83 L 68 82 L 67 83 L 66 82 L 67 81 L 67 80 L 68 79 L 69 79 L 70 79 L 70 78 L 69 78 L 69 79 L 68 79 L 67 79 L 67 80 L 67 79 L 67 80 L 68 81 L 67 81 L 68 81 L 68 80 L 69 79 L 70 80 L 71 79 L 72 79 L 72 79 L 71 78 L 70 77 L 70 76 L 69 76 L 68 77 L 69 76 L 69 75 L 68 76 L 69 75 L 70 75 L 71 75 L 70 76 L 70 77 L 70 78 L 69 79 L 68 78 L 67 77 L 67 76 L 67 77 L 66 76 L 65 75 L 64 75 L 63 76 L 62 75 L 62 75 L 61 76 L 61 77 L 62 77 L 63 77 L 62 77 L 61 76 L 61 76 L 60 75 L 59 76 L 59 77 L 59 76 L 59 75 L 59 76 L 60 76 L 61 75 L 61 74 L 60 73 L 59 74 L 58 75 L 59 76 L 58 77 L 58 76 L 57 75 L 58 75 L 59 76 L 60 77 L 61 76 L 62 77 L 62 78 L 62 78 L 62 77 L 63 77 L 64 78 L 65 79 L 66 80 L 65 79 L 65 80 L 64 80 L 63 80 L 62 79 L 63 79 L 62 80 L 61 81 L 61 80 L 60 81 L 59 82 L 59 81 L 60 82 L 60 83 L 60 83 L 59 83 L 58 83 L 58 82 L 59 82 L 59 83 L 60 83 L 60 82 L 61 81 L 62 82 L 61 81 L 60 81 L 59 80 L 58 80 L 59 81 L 60 82 L 61 82 L 60 81 L 61 81 L 62 80 L 63 80 L 64 80 L 64 79 L 65 79 L 66 80 L 66 79 L 66 79 L 66 80 L 67 81 L 66 80 L 67 80 L 67 80 L 66 79 L 66 79 L 67 79 L 68 79 L 67 78 L 66 77 L 67 77 L 67 78 L 68 77 L 68 78 L 69 79 L 69 78 L 70 79 L 70 79 L 69 80 L 69 79 L 68 78 L 69 77 L 69 77 L 68 77 L 68 77 L 67 78 L 66 79 L 67 78 L 67 77 L 66 76 L 67 75 L 66 76 L 67 77 L 66 78 L 66 79 L 66 80 L 66 80 L 65 81 L 65 80 L 66 80 L 67 79 L 67 78 L 68 79 L 68 79 L 67 78 L 68 79 L 69 79 L 70 78 L 69 78 L 69 79 L 68 78 L 69 79 L 68 78 L 69 77 L 68 77 L 68 77 L 69 77 L 70 76 L 71 75 L 71 76 L 72 76 L 72 75 L 73 74 L 72 73 L 71 72 L 70 73 L 69 73 L 68 72 L 68 71 L 67 70 L 67 71 L 68 70 L 69 69 L 68 70 L 68 69 L 68 69 L 67 69 L 66 68 L 65 69 L 65 69 L 66 70 L 66 71 L 66 72 L 66 72 L 66 73 L 67 72 L 68 73 L 67 72 L 66 71 L 65 71 L 64 71 L 63 72 L 63 72 L 63 72 L 63 72 L 63 71 L 64 71 L 63 70 L 64 69 L 63 68 L 62 67 L 61 68 L 60 69 L 60 69 L 60 69 L 59 68 L 60 67 L 59 66 L 60 65 L 60 65 L 61 64 L 62 63 L 63 64 L 64 63 L 64 63 L 63 63 L 63 63 L 63 64 L 63 65 L 64 65 L 65 64 L 64 64 L 65 64 L 66 65 L 66 66 L 67 67 L 66 66 L 67 65 L 67 66 L 67 65 L 68 65 L 69 65 L 69 66 L 68 66 L 67 67 L 67 68 L 67 67 L 67 67 L 67 68 L 67 67 L 66 68 L 65 67 L 66 66 L 65 67 L 66 68 L 67 68 L 68 67 L 69 66 L 70 67 L 70 66 L 69 65 L 68 64 L 69 64 L 68 63 L 69 64 L 70 63 L 70 63 L 69 62 L 68 61 L 68 60 L 67 59 L 68 59 L 69 60 L 68 61 L 67 60 L 67 61 L 67 60 L 67 60 L 68 61 L 67 61 L 68 62 L 69 61 L 68 62 L 67 63 L 68 64 L 69 64 L 68 63 L 68 63 L 69 64 L 69 63 L 69 62 L 70 63 L 71 63 L 72 64 L 71 64 L 71 65 L 70 64 L 71 63 L 71 64 L 70 65 L 71 64 L 70 64 L 71 63 L 72 64 L 71 63 L 71 64 L 72 65 L 72 65 L 71 65 L 71 66 L 70 66 L 71 66 L 70 66 L 71 66 L 72 66 L 71 65 L 71 65 L 70 66 L 71 65 L 71 64 L 72 63 L 71 63 L 70 63 L 71 62 L 70 63 L 69 64 L 68 63 L 67 63 L 67 63 L 68 64 L 68 64 L 67 65 L 66 66 L 66 67 L 66 66 L 67 67 L 68 66 L 69 66 L 69 67 L 70 67 L 70 67 L 70 66 L 71 67 L 70 66 L 70 67 L 71 68 L 72 69 L 73 69 L 73 69 L 73 68 L 72 69 L 71 69 L 71 69 L 72 68 L 72 68 L 72 67 L 71 67 L 72 67 L 71 68 L 71 69 L 72 70 L 71 71 L 70 70 L 70 71 L 71 70 L 71 69 L 72 68 L 71 69 L 72 69 L 72 69 L 71 69 L 72 69 L 71 70 L 70 70 L 69 69 L 69 69 L 70 68 L 70 67 L 69 68 L 68 68 L 67 67 L 68 67 L 67 67 L 66 68 L 66 67 L 66 68 L 66 69 L 67 68 L 67 67 L 67 67 L 67 68 L 68 68 L 69 68 L 69 67 L 69 67 L 69 66 L 70 65 L 70 66 L 69 65 L 69 66 L 68 65 L 67 64 L 66 63 L 66 62 L 67 63 L 66 63 L 65 63 L 65 64 L 65 63 L 64 62 L 65 62 L 64 61 L 64 62 L 63 62 L 64 61 L 64 60 L 64 59 L 64 60 L 63 61 L 64 62 L 64 62 L 65 63 L 64 63 L 63 63 L 63 63 L 62 63 L 63 62 L 62 62 L 63 61 L 62 62 L 62 63 L 62 63 L 62 63 L 63 63 L 64 64 L 63 65 L 63 65 L 63 66 L 62 66 L 61 65 L 61 64 L 62 64 L 61 63 L 61 62 L 62 61 L 63 60 L 64 59 L 63 59 L 63 58 L 64 58 L 64 57 L 64 58 L 64 59 L 64 58 L 64 59 L 64 58 L 63 57 L 62 57 L 63 56 L 64 57 L 64 56 L 63 57 L 63 57 L 63 56 L 64 55 L 65 56 L 65 57 L 66 58 L 67 59 L 68 58 L 69 58 L 69 59 L 68 60 L 69 61 L 68 62 L 68 63 L 69 63 L 69 64 L 69 63 L 68 63 L 69 63 L 68 63 L 67 64 L 68 64 L 69 65 L 69 65 L 70 64 L 69 63 L 69 62 L 70 62 L 71 62 L 71 62 L 71 62 L 71 61 L 70 61 L 71 62 L 71 62 L 72 62 L 72 63 L 72 63 L 73 62 L 73 62 L 74 62 L 75 62 L 74 61 L 73 61 L 73 61 L 73 62 L 73 61 L 73 62 L 73 63 L 74 62 L 75 62 L 74 62 L 75 63 L 74 64 L 75 65 L 75 66 L 76 67 L 77 67 L 76 68 L 75 67 L 75 66 L 75 65 L 76 64 L 75 65 L 75 65 L 75 66 L 75 65 L 74 65 L 74 64 L 74 64 L 74 65 L 74 66 L 73 66 L 73 66 L 73 66 L 72 65 L 73 66 L 72 66 L 71 66 L 71 66 L 70 65 L 71 64 L 71 63 L 70 62 L 69 61 L 68 62 L 68 63 L 68 62 L 68 62 L 67 63 L 67 64 L 66 64 L 66 65 L 65 66 L 64 66 L 63 65 L 62 66 L 62 66 L 61 66 L 61 67 L 61 67 L 60 66 L 61 65 L 61 64 L 61 65 L 62 64 L 61 65 L 61 66 L 61 66 L 60 67 L 61 68 L 60 68 L 61 67 L 60 67 L 61 67 L 61 67 L 62 66 L 61 67 L 61 68 L 61 69 L 60 69 L 59 68 L 59 69 L 59 69 L 59 68 L 58 67 L 57 66 L 58 67 L 59 68 L 60 69 L 61 70 L 61 69 L 62 70 L 61 70 L 60 70 L 61 71 L 61 70 L 60 71 L 60 71 L 60 71 L 59 70 L 58 71 L 57 71 L 58 70 L 59 69 L 59 68 L 58 67 L 58 66 L 59 65 L 58 65 L 57 64 L 57 63 L 57 62 L 57 61 L 58 61 L 59 60 L 58 60 L 57 61 L 56 61 L 57 62 L 58 62 L 58 62 L 59 62 L 58 62 L 59 62 L 58 61 L 58 62 L 57 61 L 57 61 L 58 60 L 58 60 L 58 59 L 59 60 L 60 61 L 61 62 L 61 63 L 61 63 L 62 63 L 61 63 L 62 63 L 61 63 L 61 62 L 61 63 L 61 63 L 62 62 L 61 61 L 61 62 L 62 62 L 63 63 L 64 63 L 63 63 L 64 62 L 65 63 L 64 64 L 65 65 L 65 64 L 65 63 L 66 62 L 67 62 L 67 63 L 66 64 L 67 64 L 67 65 L 68 64 L 68 63 L 69 64 L 69 64 L 68 64 L 68 63 L 68 63 L 69 63 L 69 64 L 69 65 L 68 65 L 67 64 L 66 64 L 67 64 L 66 63 L 67 63 L 66 63 L 65 64 L 65 63 L 64 63 L 65 63 L 64 63 L 64 64 L 63 63 L 64 62 L 63 61 L 62 60 L 62 61 L 61 60 L 60 60 L 60 59 L 60 59 L 60 58 L 59 59 L 60 59 L 59 60 L 60 59 L 59 58 L 59 58 L 58 59 L 58 59 L 59 60 L 59 61 L 58 61 L 58 62 L 58 62 L 57 61 L 56 61 L 56 61 L 57 61 L 57 60 L 56 60 L 55 61 L 54 61 L 54 62 L 55 61 L 56 60 L 55 59 L 56 60 L 57 61 L 57 61 L 58 61 L 59 62 L 59 61 L 60 60 L 60 61 L 60 60 L 60 61 L 59 61 L 59 62 L 59 61 L 60 60 L 61 61 L 61 62 L 62 63 L 63 62 L 63 63 L 63 62 L 64 62 L 63 61 L 64 62 L 65 62 L 66 62 L 65 62 L 65 62 L 65 62 L 65 63 L 65 64 L 64 65 L 63 64 L 64 65 L 65 66 L 65 67 L 64 66 L 63 67 L 63 67 L 64 67 L 63 68 L 63 68 L 63 69 L 62 68 L 62 67 L 61 66 L 60 67 L 60 67 L 61 68 L 62 69 L 61 68 L 60 67 L 60 66 L 61 67 L 62 68 L 63 67 L 63 68 L 64 67 L 65 68 L 65 67 L 65 66 L 65 66 L 65 65 L 65 66 L 66 66 L 67 66 L 67 65 L 66 66 L 65 66 L 66 65 L 66 65 L 66 66 L 67 65 L 66 65 L 65 64 L 64 65 L 63 65 L 64 66 L 65 65 L 64 64 L 65 65 L 64 64 L 65 63 L 66 64 L 66 63 L 65 64 L 65 64 L 64 64 L 64 63 L 63 62 L 62 63 L 61 62 L 62 62 L 63 63 L 64 62 L 63 63 L 63 63 L 62 63 L 63 63 L 64 62 L 65 61 L 65 62 L 64 62 L 64 61 L 64 62 L 63 61 L 64 60 L 65 59 L 64 59 L 64 59 L 65 58 L 66 58 L 65 59 L 64 58 L 63 59 L 62 60 L 62 61 L 61 62 L 62 62 L 62 62 L 61 62 L 60 63 L 59 62 L 60 63 L 59 63 L 59 62 L 59 62 L 58 62 L 59 61 L 58 61 L 59 61 L 60 62 L 61 62 L 61 62 L 60 62 L 60 62 L 61 62 L 61 63 L 60 63 L 60 63 L 61 62 L 62 63 L 61 63 L 62 63 L 63 64 L 62 64 L 62 65 L 62 66 L 61 66 L 60 66 L 59 65 L 59 66 L 60 65 L 61 66 L 60 66 L 60 67 L 61 67 L 61 68 L 62 68 L 61 68 L 60 68 L 60 67 L 59 66 L 58 67 L 57 68 L 57 68 L 57 69 L 58 70 L 58 71 L 58 71 L 57 72 L 56 73 L 56 73 L 57 73 L 58 72 L 59 71 L 59 70 L 59 71 L 59 70 L 58 69 L 57 69 L 57 69 L 58 70 L 57 70 L 57 71 L 57 71 L 58 70 L 58 70 L 59 71 L 58 72 L 59 71 L 60 71 L 59 72 L 58 72 L 57 71 L 56 72 L 56 73 L 55 73 L 56 73 L 55 72 L 54 72 L 55 72 L 55 71 L 55 70 L 55 70 L 55 70 L 56 71 L 57 72 L 57 71 L 56 71 L 56 70 L 57 69 L 58 68 L 59 68 L 60 69 L 61 69 L 62 68 L 63 69 L 62 69 L 63 70 L 63 71 L 64 70 L 64 70 L 65 71 L 64 71 L 63 72 L 62 72 L 61 73 L 61 74 L 62 75 L 63 76 L 62 76 L 63 77 L 64 76 L 63 76 L 64 75 L 65 75 L 65 76 L 66 76 L 66 76 L 66 77 L 65 76 L 65 76 L 64 75 L 63 75 L 64 75 L 64 75 L 63 76 L 62 77 L 63 77 L 63 77 L 63 76 L 64 75 L 65 76 L 66 76 L 65 77 L 65 77 L 65 76 L 65 77 L 65 78 L 65 79 L 65 79 L 66 78 L 66 77 L 67 76 L 67 76 L 66 75 L 65 76 L 65 76 L 64 76 L 63 76 L 63 75 L 63 76 L 62 76 L 62 76 L 62 77 L 63 77 L 64 77 L 65 78 L 65 79 L 64 79 L 64 80 L 64 79 L 65 78 L 64 77 L 64 76 L 63 76 L 62 76 L 63 76 L 62 75 L 61 74 L 60 75 L 59 75 L 59 74 L 59 74 L 59 75 L 58 76 L 58 77 L 57 76 L 58 77 L 58 76 L 58 75 L 59 74 L 59 74 L 58 75 L 59 76 L 60 75 L 60 74 L 61 74 L 60 74 L 61 75 L 62 74 L 62 74 L 62 74 L 61 75 L 60 75 L 60 76 L 60 75 L 59 74 L 59 75 L 59 74 L 59 75 L 59 75 L 60 75 L 61 75 L 60 76 L 61 76 L 62 76 L 63 75 L 62 74 L 61 73 L 61 73 L 60 74 L 60 73 L 59 73 L 59 73 L 59 73 L 58 74 L 57 73 L 58 73 L 59 72 L 60 73 L 59 72 L 58 73 L 59 72 L 60 72 L 60 72 L 60 72 L 60 72 L 60 72 L 59 73 L 58 72 L 57 72 L 57 72 L 56 73 L 55 73 L 54 72 L 55 71 L 55 71 L 56 71 L 57 71 L 58 71 L 58 71 L 59 70 L 59 69 L 58 68 L 58 67 L 58 68 L 59 69 L 60 68 L 61 67 L 62 68 L 63 68 L 64 67 L 65 66 L 64 66 L 63 67 L 62 68 L 62 68 L 61 69 L 61 69 L 61 70 L 61 70 L 60 69 L 60 68 L 60 67 L 60 67 L 61 66 L 62 67 L 61 67 L 62 68 L 62 68 L 62 67 L 63 66 L 64 66 L 63 67 L 62 67 L 62 66 L 62 65 L 63 66 L 63 67 L 63 68 L 64 67 L 63 67 L 62 66 L 63 66 L 63 66 L 63 65 L 64 66 L 64 66 L 64 66 L 65 66 L 65 66 L 66 66 L 67 66 L 68 66 L 69 67 L 68 67 L 69 66 L 69 67 L 68 68 L 67 69 L 68 69 L 67 68 L 68 68 L 67 69 L 67 68 L 66 69 L 67 68 L 66 68 L 67 68 L 67 68 L 66 68 L 65 68 L 66 68 L 67 69 L 66 68 L 66 68 L 66 69 L 66 69 L 66 68 L 65 69 L 64 70 L 65 69 L 66 69 L 67 68 L 66 67 L 67 68 L 67 67 L 67 66 L 67 65 L 68 64 L 69 63 L 68 64 L 69 64 L 68 63 L 68 63 L 67 64 L 68 64 L 69 65 L 69 65 L 70 65 L 69 65 L 69 64 L 70 63 L 69 62 L 70 61 L 71 61 L 72 60 L 73 59 L 73 58 L 72 57 L 71 57 L 72 56 L 73 56 L 72 55 L 73 54 L 74 53 L 74 53 L 73 54 L 74 53 L 75 53 L 76 54 L 76 55 L 76 56 L 77 55 L 77 56 L 77 56 L 76 56 L 77 56 L 76 57 L 76 57 L 76 58 L 76 59 L 77 60 L 76 60 L 77 61 L 76 60 L 75 59 L 74 60 L 73 61 L 74 62 L 74 61 L 73 61 L 73 61 L 72 61 L 72 60 L 72 61 L 71 61 L 72 61 L 73 60 L 74 60 L 74 59 L 74 60 L 73 61 L 72 61 L 72 61 L 72 60 L 71 59 L 70 58 L 69 58 L 68 57 L 68 56 L 69 56 L 69 55 L 70 55 L 71 55 L 70 55 L 71 54 L 71 53 L 70 52 L 69 53 L 68 52 L 68 52 L 67 52 L 67 53 L 66 54 L 65 54 L 66 54 L 65 55 L 65 55 L 64 55 L 65 54 L 66 53 L 66 52 L 66 51 L 66 50 L 65 50 L 64 51 L 63 52 L 64 53 L 65 53 L 65 52 L 65 52 L 65 52 L 64 51 L 63 50 L 64 51 L 65 50 L 66 50 L 65 49 L 65 49 L 65 48 L 65 49 L 64 50 L 64 51 L 63 51 L 62 50 L 63 50 L 63 51 L 62 51 L 62 50 L 63 50 L 62 50 L 61 49 L 61 49 L 62 49 L 62 49 L 62 49 L 63 50 L 62 50 L 63 49 L 62 48 L 63 47 L 63 48 L 62 47 L 63 46 L 63 45 L 63 44 L 64 45 L 63 46 L 63 47 L 63 48 L 64 48 L 65 47 L 65 48 L 65 49 L 66 48 L 65 48 L 65 48 L 66 49 L 66 48 L 65 48 L 65 48 L 65 48 L 64 49 L 64 48 L 65 49 L 64 49 L 65 50 L 65 51 L 65 52 L 64 51 L 63 50 L 64 49 L 64 49 L 65 48 L 64 48 L 64 49 L 63 48 L 62 47 L 63 47 L 63 48 L 63 48 L 62 49 L 62 48 L 61 47 L 60 48 L 61 47 L 61 46 L 61 45 L 61 44 L 60 43 L 60 43 L 60 43 L 61 43 L 62 43 L 63 44 L 64 43 L 63 42 L 63 43 L 64 43 L 65 44 L 65 44 L 64 45 L 63 45 L 62 44 L 61 43 L 61 43 L 61 42 L 60 42 L 59 42 L 59 42 L 58 42 L 59 43 L 60 42 L 61 41 L 61 42 L 61 41 L 62 41 L 63 40 L 62 41 L 61 42 L 61 41 L 62 42 L 62 42 L 63 42 L 62 42 L 61 42 L 61 42 L 61 42 L 62 41 L 61 42 L 61 43 L 62 43 L 61 42 L 61 43 L 60 42 L 60 41 L 60 40 L 61 39 L 60 38 L 61 37 L 62 36 L 61 36 L 61 37 L 62 37 L 61 38 L 61 39 L 62 39 L 61 40 L 62 40 L 61 41 L 61 40 L 60 41 L 60 41 L 59 42 L 59 42 L 59 42 L 59 42 L 59 42 L 58 41 L 57 41 L 58 41 L 58 40 L 58 39 L 59 38 L 59 39 L 60 38 L 61 39 L 60 38 L 61 38 L 61 38 L 60 38 L 60 37 L 61 37 L 61 38 L 62 39 L 62 38 L 62 38 L 61 38 L 61 38 L 62 37 L 61 37 L 62 36 L 62 36 L 62 35 L 61 34 L 61 34 L 61 35 L 61 35 L 61 35 L 62 34 L 63 35 L 64 36 L 64 36 L 63 36 L 64 36 L 65 37 L 64 38 L 65 39 L 66 39 L 65 39 L 66 40 L 66 39 L 66 39 L 65 39 L 66 38 L 66 37 L 67 36 L 67 36 L 66 37 L 66 36 L 66 37 L 65 37 L 66 37 L 67 37 L 67 36 L 68 35 L 68 36 L 67 37 L 66 38 L 65 37 L 66 38 L 65 37 L 65 37 L 66 36 L 65 35 L 66 35 L 66 35 L 65 34 L 64 35 L 64 36 L 64 36 L 65 37 L 64 38 L 65 38 L 64 39 L 63 39 L 64 38 L 64 37 L 63 36 L 62 36 L 61 35 L 61 36 L 61 35 L 62 34 L 61 33 L 61 34 L 62 33 L 63 33 L 64 32 L 63 31 L 64 30 L 65 29 L 66 30 L 65 30 L 66 30 L 65 29 L 65 30 L 66 30 L 66 29 L 65 29 L 64 29 L 64 28 L 64 27 L 64 28 L 65 29 L 65 28 L 64 29 L 63 30 L 62 31 L 63 30 L 62 30 L 62 29 L 62 28 L 61 28 L 61 29 L 61 30 L 62 29 L 62 30 L 62 31 L 62 30 L 61 30 L 60 29 L 60 28 L 60 27 L 60 27 L 59 26 L 60 27 L 60 27 L 60 26 L 60 27 L 60 26 L 59 25 L 60 24 L 59 23 L 59 23 L 58 23 L 59 23 L 59 23 L 58 23 L 58 23 L 57 22 L 56 21 L 57 22 L 58 23 L 58 23 L 58 23 L 58 22 L 57 23 L 57 23 L 56 22 L 56 22 L 55 21 L 54 22 L 53 23 L 53 24 L 54 23 L 54 22 L 55 23 L 55 23 L 54 24 L 54 23 L 55 24 L 54 25 L 53 25 L 52 25 L 53 26 L 52 26 L 52 27 L 53 27 L 54 27 L 55 28 L 54 27 L 55 26 L 56 27 L 57 28 L 57 28 L 58 29 L 57 30 L 56 29 L 55 28 L 54 27 L 54 27 L 53 26 L 54 25 L 53 25 L 52 26 L 53 27 L 53 28 L 53 28 L 54 28 L 53 27 L 53 28 L 52 28 L 51 29 L 50 29 L 49 28 L 50 27 L 50 28 L 51 29 L 50 29 L 49 30 L 48 31 L 49 30 L 49 30 L 48 29 L 48 30 L 47 31 L 48 30 L 49 29 L 50 30 L 51 30 L 50 30 L 50 29 L 51 28 L 50 29 L 49 28 L 49 28 L 49 29 L 48 30 L 49 29 L 50 28 L 50 27 L 51 26 L 51 26 L 50 26 L 50 25 L 50 25 L 49 24 L 48 23 L 49 22 L 50 23 L 50 24 L 49 25 L 50 25 L 50 25 L 51 25 L 51 26 L 51 26 L 50 25 L 50 24 L 50 24 L 49 23 L 49 24 L 49 25 L 49 24 L 49 23 L 50 24 L 49 23 L 49 23 L 48 22 L 47 22 L 48 23 L 49 23 L 50 22 L 50 23 L 49 23 L 48 24 L 48 24 L 47 25 L 46 25 L 46 25 L 45 26 L 45 26 L 46 26 L 47 25 L 48 25 L 47 26 L 48 26 L 47 26 L 47 27 L 47 27 L 48 26 L 48 27 L 47 26 L 48 26 L 47 25 L 48 24 L 48 25 L 49 26 L 49 27 L 48 27 L 48 27 L 48 28 L 47 27 L 48 27 L 47 27 L 46 26 L 45 27 L 44 26 L 43 27 L 42 28 L 42 29 L 41 28 L 42 28 L 42 27 L 43 27 L 43 27 L 44 28 L 43 27 L 42 26 L 43 27 L 43 26 L 44 25 L 44 24 L 44 25 L 45 25 L 46 24 L 46 24 L 47 25 L 46 26 L 46 27 L 45 28 L 45 28 L 46 27 L 45 27 L 44 28 L 45 27 L 46 28 L 46 29 L 46 28 L 45 29 L 46 29 L 45 30 L 46 30 L 46 29 L 46 29 L 47 28 L 48 27 L 49 28 L 50 27 L 50 26 L 49 25 L 50 24 L 49 23 L 50 22 L 51 22 L 51 23 L 52 24 L 51 24 L 51 24 L 51 24 L 50 25 L 50 25 L 49 26 L 50 27 L 51 26 L 50 26 L 51 25 L 52 25 L 53 26 L 52 25 L 51 24 L 51 23 L 51 22 L 52 21 L 51 20 L 51 19 L 52 20 L 52 21 L 52 22 L 51 22" />
 <text fill="LIGHTGREEN" x="180.0" y="2.0" > id:2 ln:4584 </text>
 <path stroke="LIGHTGREEN" fill="white" d="M 119 97 L 119 97 L 120 96 L 121 95 L 121 95 L 122 94 L 121 95 L 120 94 L 121 94 L 122 94 L 121 93 L 121 92 L 122 92 L 123 92 L 123 91 L 123 92 L 123 93 L 122 93 L 123 93 L 124 92 L 123 93 L 124 93 L 124 93 L 125 94 L 125 93 L 125 94 L 126 95 L 127 96 L 128 95 L 129 95 L 130 96 L 130 97 L 129 97 L 128 97 L 128 96 L 129 95 L 129 96 L 128 96 L 129 96 L 129 97 L 129 96 L 129 97 L 129 98 L 130 98 L 129 98 L 130 99 L 130 98 L 130 99 L 130 99 L 131 100 L 131 100 L 131 99 L 131 98 L 130 98 L 131 97 L 131 96 L 131 97 L 130 98 L 131 98 L 130 99 L 129 100 L 130 99 L 130 98 L 129 99 L 129 98 L 128 97 L 128 98 L 127 99 L 128 99 L 127 100 L 128 100 L 128 99 L 128 98 L 128 99 L 129 99 L 129 99 L 128 99 L 127 100 L 128 101 L 129 100 L 130 101 L 130 100 L 131 101 L 132 101 L 132 102 L 132 103 L 133 104 L 133 104 L 132 105 L 133 104 L 132 104 L 131 105 L 131 105 L 130 105 L 130 104 L 130 105 L 130 105 L 130 104 L 130 105 L 131 106 L 130 107 L 129 108 L 129 108 L 129 107 L 128 106 L 127 105 L 127 104 L 126 104 L 125 103 L 124 102 L 124 103 L 125 104 L 126 104 L 127 104 L 128 105 L 128 106 L 129 105 L 130 105 L 130 105 L 130 105 L 129 106 L 129 105 L 130 105 L 131 106 L 130 107 L 131 106 L 132 105 L 132 104 L 132 105 L 131 106 L 131 105 L 130 106 L 130 105 L 130 105 L 129 104 L 129 104 L 129 103 L 130 102 L 130 101 L 131 100 L 131 100 L 132 99 L 133 99 L 132 100 L 133 99 L 133 99 L 133 100 L 132 101 L 132 101 L 132 102 L 131 103 L 132 104 L 132 105 L 131 105 L 130 105 L 130 105 L 131 106 L 131 107 L 131 106 L 132 106 L 132 106 L 133 105 L 132 105 L 132 105 L 133 105 L 134 105 L 135 105 L 135 104 L 135 105 L 135 105 L 136 104 L 136 105 L 136 105 L 136 105 L 136 106 L 136 106 L 136 106 L 135 107 L 136 107 L 135 106 L 134 106 L 135 106 L 136 107 L 137 107 L 138 107 L 139 107 L 140 107 L 141 108 L 141 109 L 140 109 L 140 109 L 141 110 L 142 110 L 142 111 L 141 112 L 141 111 L 140 110 L 140 109 L 140 109 L 139 110 L 140 109 L 140 108 L 139 108 L 139 109 L 138 108 L 138 109 L 137 109 L 136 108 L 135 107 L 136 108 L 136 109 L 136 109 L 137 108 L 138 109 L 139 109 L 139 109 L 139 108 L 140 109 L 141 109 L 141 108 L 141 109 L 140 109 L 140 109 L 139 109 L 140 110 L 141 111 L 140 110 L 141 109 L 142 108 L 143 108 L 142 109 L 142 108 L 143 107 L 144 106 L 143 106 L 143 105 L 144 104 L 143 105 L 144 104 L 145 104 L 145 105 L 145 106 L 145 107 L 146 107 L 147 107 L 147 107 L 146 107 L 145 107 L 145 108 L 146 109 L 146 108 L 147 108 L 147 107 L 146 108 L 146 108 L 145 107 L 145 108 L 145 107 L 145 106 L 146 106 L 147 105 L 147 105 L 147 105 L 147 105 L 147 105 L 147 105 L 148 104 L 148 103 L 149 103 L 150 102 L 151 103 L 150 103 L 151 104 L 151 105 L 151 105 L 150 105 L 151 104 L 151 104 L 150 104 L 151 104 L 150 104 L 149 105 L 149 106 L 149 106 L 149 105 L 150 104 L 149 105 L 150 104 L 151 103 L 152 103 L 152 104 L 152 103 L 153 103 L 154 103 L 153 104 L 152 105 L 153 105 L 153 105 L 152 106 L 152 107 L 153 106 L 153 105 L 153 105 L 154 106 L 153 107 L 152 108 L 153 107 L 152 108 L 153 107 L 153 108 L 153 107 L 152 107 L 153 106 L 154 107 L 153 108 L 154 108 L 154 107 L 154 106 L 155 106 L 156 107 L 156 108 L 155 108 L 154 109 L 153 110 L 154 109 L 155 109 L 156 109 L 155 109 L 154 110 L 153 110 L 153 109 L 153 108 L 154 108 L 153 109 L 152 109 L 152 110 L 152 110 L 153 110 L 153 109 L 153 108 L 152 108 L 153 107 L 152 108 L 153 109 L 154 108 L 153 109 L 152 109 L 152 108 L 151 107 L 150 106 L 150 107 L 150 106 L 150 106 L 151 106 L 152 106 L 153 107 L 154 106 L 154 106 L 154 107 L 155 108 L 156 109 L 156 109 L 157 109 L 158 109 L 159 108 L 160 107 L 160 106 L 161 105 L 160 106 L 159 106 L 159 106 L 159 105 L 160 104 L 161 105 L 162 105 L 162 105 L 161 104 L 160 103 L 161 104 L 161 104 L 160 103 L 160 102 L 160 102 L 161 101 L 161 101 L 160 101 L 161 102 L 160 103 L 160 103 L 161 104 L 160 103 L 160 102 L 160 103 L 160 104 L 159 104 L 159 105 L 159 106 L 158 107 L 158 108 L 158 109 L 158 110 L 159 109 L 158 110 L 157 110 L 156 110 L 157 111 L 157 110 L 158 109 L 157 110 L 157 110 L 158 109 L 157 108 L 157 107 L 156 108 L 157 109 L 156 109 L 156 109 L 155 110 L 156 111 L 157 110 L 156 109 L 157 109 L 158 109 L 157 108 L 156 109 L 155 109 L 156 110 L 157 110 L 157 109 L 156 110 L 157 110 L 158 109 L 159 109 L 158 110 L 158 110 L 157 111 L 158 110 L 158 111 L 157 110 L 158 109 L 159 109 L 159 110 L 158 111 L 157 111 L 158 111 L 158 110 L 158 111 L 158 110 L 159 110 L 159 110 L 160 110 L 159 111 L 159 112 L 158 113 L 158 112 L 158 113 L 158 114 L 159 113 L 160 113 L 160 113 L 161 114 L 162 115 L 163 114 L 164 115 L 165 114 L 164 113 L 163 113 L 164 114 L 165 113 L 166 112 L 166 113 L 167 112 L 166 113 L 165 114 L 165 115 L 166 115 L 166 116 L 165 117 L 165 116 L 164 115 L 163 114 L 163 113 L 163 114 L 162 114 L 162 115 L 161 115 L 161 115 L 161 116 L 160 115 L 160 116 L 160 116 L 161 116 L 161 117 L 161 116 L 161 115 L 160 114 L 160 114 L 161 114 L 161 113 L 160 114 L 161 115 L 162 116 L 162 115 L 162 114 L 161 113 L 162 112 L 162 112 L 163 112 L 162 113 L 161 112 L 160 111 L 161 112 L 162 113 L 162 114 L 162 114 L 161 113 L 160 113 L 159 114 L 160 114 L 159 115 L 158 116 L 159 116 L 158 116 L 158 115 L 157 115 L 158 114 L 158 114 L 158 114 L 159 114 L 159 113 L 160 112 L 161 113 L 162 114 L 163 114 L 162 114 L 163 113 L 163 112 L 162 112 L 161 113 L 161 114 L 160 114 L 161 114 L 160 113 L 160 114 L 160 114 L 160 113 L 159 112 L 159 111 L 158 111 L 158 111 L 157 110 L 158 111 L 159 111 L 158 110 L 159 111 L 159 111 L 159 111 L 159 112 L 158 112 L 157 112 L 158 111 L 157 110 L 157 110 L 158 110 L 159 109 L 160 110 L 160 110 L 161 110 L 160 111 L 160 111 L 160 110 L 159 109 L 160 108 L 160 109 L 160 108 L 160 109 L 159 108 L 158 109 L 159 108 L 160 107 L 159 106 L 158 106 L 157 107 L 157 106 L 156 105 L 155 106 L 154 105 L 155 106 L 154 105 L 154 105 L 154 105 L 154 106 L 153 106 L 154 106 L 154 106 L 155 106 L 155 105 L 155 105 L 154 106 L 153 107 L 152 108 L 153 107 L 153 108 L 152 107 L 151 108 L 150 108 L 150 109 L 149 110 L 150 109 L 149 108 L 148 109 L 149 108 L 150 107 L 149 107 L 148 106 L 149 107 L 150 106 L 149 105 L 148 105 L 147 104 L 148 104 L 149 104 L 148 103 L 148 104 L 149 105 L 149 105 L 150 104 L 150 104 L 149 104 L 149 103 L 150 104 L 150 104 L 151 104 L 151 104 L 152 104 L 153 104 L 154 103 L 154 104 L 153 103 L 153 104 L 154 105 L 155 105 L 155 104 L 155 103 L 156 104 L 156 103 L 156 104 L 156 104 L 156 105 L 156 105 L 155 104 L 154 105 L 154 106 L 153 106 L 154 106 L 154 105 L 155 105 L 156 104 L 155 104 L 156 103 L 156 103 L 155 102 L 154 102 L 155 102 L 156 102 L 155 101 L 156 100 L 157 100 L 157 99 L 157 99 L 156 100 L 157 100 L 157 99 L 157 100 L 156 100 L 157 100 L 158 101 L 157 101 L 158 101 L 157 101 L 157 100 L 157 100 L 157 99 L 157 100 L 156 101 L 157 101 L 157 101 L 158 102 L 158 101 L 157 100 L 158 101 L 157 100 L 158 101 L 157 100 L 156 99 L 156 99 L 157 98 L 156 99 L 157 99 L 158 100 L 157 99 L 157 98 L 158 98 L 157 97 L 156 98 L 156 98 L 157 97 L 156 97 L 156 98 L 155 99 L 155 99 L 156 98 L 157 98 L 158 99 L 158 99 L 157 100 L 156 101 L 155 101 L 156 100 L 156 100 L 156 100 L 155 99 L 155 98 L 156 99 L 155 100 L 156 99 L 155 100 L 155 99 L 154 100 L 154 101 L 153 102 L 152 102 L 151 101 L 152 101 L 151 100 L 152 99 L 153 100 L 152 101 L 152 100 L 152 101 L 152 102 L 152 103 L 152 104 L 152 103 L 153 103 L 152 102 L 153 103 L 154 104 L 155 104 L 156 103 L 155 104 L 155 105 L 156 105 L 157 105 L 156 106 L 156 105 L 155 106 L 156 107 L 156 106 L 156 107 L 156 107 L 157 107 L 157 108 L 157 109 L 158 108 L 158 109 L 159 108 L 160 109 L 161 108 L 162 109 L 161 108 L 160 108 L 161 108 L 160 107 L 160 106 L 160 106 L 161 105 L 162 105 L 162 104 L 163 103 L 162 103 L 163 103 L 162 102 L 161 101 L 162 101 L 161 102 L 160 103 L 161 102 L 161 101 L 160 101 L 160 102 L 161 101 L 160 100 L 160 101 L 161 102 L 160 101 L 160 100 L 160 99 L 159 99 L 158 100 L 159 99 L 160 99 L 160 100 L 161 99 L 160 98 L 159 98 L 160 97 L 159 96 L 160 95 L 161 96 L 160 95 L 161 96 L 161 95 L 160 95 L 159 96 L 158 97 L 158 96 L 158 96 L 158 96 L 157 97 L 158 97 L 157 97 L 158 96 L 157 95 L 157 95 L 158 95 L 158 94 L 157 95 L 156 96 L 155 95 L 156 94 L 157 95 L 157 94 L 156 94 L 155 95 L 156 94 L 156 94 L 157 93 L 156 94 L 157 94 L 156 94 L 156 95 L 157 96 L 157 96 L 158 97 L 157 98 L 156 98 L 157 99 L 157 100 L 157 101 L 156 101 L 157 101 L 156 101 L 157 101 L 156 101 L 157 102 L 158 103 L 158 104 L 157 104 L 158 103 L 159 104 L 159 104 L 159 104 L 159 103 L 160 104 L 159 103 L 160 103 L 160 102 L 161 103 L 161 102 L 162 102 L 162 103 L 161 102 L 160 103 L 159 102 L 158 103 L 159 104 L 159 104 L 159 103 L 160 103 L 161 103 L 162 102 L 163 103 L 164 104 L 165 104 L 165 104 L 165 105 L 166 105 L 167 105 L 166 105 L 167 106 L 168 105 L 167 105 L 167 104 L 167 104 L 167 103 L 168 103 L 167 103 L 168 102 L 167 102 L 166 102 L 167 101 L 166 100 L 165 101 L 165 101 L 165 102 L 164 101 L 165 100 L 164 100 L 163 99 L 163 98 L 162 98 L 161 98 L 161 98 L 160 97 L 160 97 L 161 96 L 162 96 L 163 95 L 164 94 L 164 94 L 165 93 L 165 94 L 164 94 L 164 94 L 165 93 L 165 92 L 166 91 L 167 92 L 168 91 L 167 92 L 168 93 L 168 93 L 167 94 L 166 95 L 167 95 L 168 96 L 169 97 L 169 97 L 170 97 L 170 96 L 169 96 L 170 95 L 171 95 L 171 95 L 171 94 L 170 93 L 169 92 L 170 92 L 171 92 L 170 92 L 169 93 L 168 94 L 169 94 L 170 94 L 171 93 L 170 93 L 171 92 L 170 92 L 169 93 L 170 93 L 170 94 L 171 95 L 170 96 L 170 97 L 171 96 L 170 96 L 169 96 L 170 96 L 169 95 L 169 96 L 170 95 L 171 94 L 171 94 L 171 94 L 171 93 L 171 94 L 171 93 L 171 94 L 171 93 L 171 94 L 171 93 L 172 93 L 172 93 L 172 92 L 173 92 L 172 93 L 172 94 L 171 94 L 172 93 L 171 92 L 170 93 L 169 93 L 169 92 L 169 91 L 170 92 L 169 91 L 169 90 L 169 91 L 170 91 L 171 92 L 170 92 L 170 92 L 170 93 L 170 92 L 171 91 L 170 92 L 169 92 L 169 92 L 169 91 L 169 91 L 168 90 L 169 90 L 168 91 L 169 92 L 169 93 L 170 92 L 171 91 L 171 91 L 170 90 L 169 89 L 168 89 L 167 89 L 166 89 L 165 89 L 165 89 L 164 90 L 163 89 L 162 88 L 161 87 L 161 87 L 161 88 L 161 88 L 162 88 L 163 89 L 163 88 L 163 87 L 163 87 L 162 88 L 162 87 L 162 87 L 163 87 L 163 87 L 164 87 L 164 88 L 163 87 L 163 86 L 164 87 L 164 87 L 165 87 L 166 88 L 165 87 L 166 88 L 166 88 L 165 88 L 165 87 L 165 88 L 165 89 L 164 89 L 164 89 L 165 88 L 164 89 L 164 88 L 165 89 L 165 88 L 165 87 L 166 86 L 166 85 L 167 85 L 167 84 L 168 85 L 168 85 L 167 85 L 167 85 L 166 84 L 165 84 L 166 85 L 166 85 L 167 86 L 166 87 L 167 86 L 168 86 L 168 85 L 167 85 L 166 85 L 165 85 L 166 85 L 165 86 L 164 86 L 163 85 L 162 86 L 163 87 L 162 86 L 161 85 L 160 84 L 161 85 L 160 85 L 159 86 L 159 87 L 158 86 L 158 87 L 159 88 L 160 89 L 160 90 L 161 91 L 162 91 L 163 91 L 163 90 L 163 90 L 163 91 L 163 91 L 164 92 L 163 93 L 164 92 L 163 92 L 163 91 L 163 90 L 162 90 L 161 91 L 160 90 L 161 91 L 162 92 L 161 91 L 161 90 L 160 90 L 160 91 L 161 90 L 160 90 L 160 89 L 161 88 L 160 89 L 161 88 L 161 88 L 161 88 L 160 89 L 159 88 L 158 89 L 159 90 L 158 90 L 157 90 L 157 91 L 157 90 L 156 89 L 156 90 L 157 90 L 157 91 L 156 92 L 155 91 L 155 92 L 155 93 L 155 93 L 156 93 L 155 93 L 155 94 L 154 94 L 155 94 L 154 93 L 155 92 L 156 91 L 155 90 L 155 90 L 155 90 L 154 91 L 153 92 L 154 93 L 153 94 L 152 95 L 153 94 L 152 94 L 151 93 L 150 92 L 151 93 L 151 94 L 152 94 L 153 95 L 152 94 L 153 95 L 154 96 L 153 97 L 152 96 L 151 97 L 152 98 L 152 98 L 153 98 L 152 99 L 153 99 L 153 100 L 154 99 L 153 99 L 152 100 L 152 100 L 151 100 L 152 100 L 152 101 L 151 101 L 151 101 L 150 100 L 149 99 L 150 98 L 151 99 L 150 99 L 150 98 L 151 97 L 151 96 L 152 97 L 152 97 L 153 96 L 153 97 L 152 96 L 151 95 L 151 95 L 150 94 L 150 93 L 149 93 L 150 93 L 149 94 L 150 95 L 149 96 L 148 95 L 148 95 L 147 96 L 147 96 L 146 96 L 146 96 L 147 96 L 148 97 L 148 96 L 147 97 L 148 98 L 149 97 L 148 96 L 148 95 L 147 96 L 146 96 L 147 95 L 148 94 L 149 94 L 149 93 L 150 93 L 150 93 L 150 93 L 150 92 L 149 93 L 149 92 L 149 91 L 148 92 L 147 91 L 146 90 L 147 89 L 148 89 L 148 88 L 147 88 L 148 88 L 147 89 L 147 90 L 146 90 L 147 90 L 147 89 L 148 88 L 149 89 L 149 88 L 148 88 L 148 87 L 147 86 L 147 87 L 146 86 L 145 87 L 145 87 L 146 86 L 147 86 L 146 87 L 145 87 L 146 87 L 145 87 L 145 86 L 145 85 L 144 85 L 143 85 L 143 85 L 143 86 L 143 85 L 142 86 L 141 85 L 141 85 L 140 85 L 141 84 L 141 85 L 141 84 L 140 83 L 139 83 L 139 83 L 140 84 L 140 83 L 139 83 L 139 82 L 140 81 L 141 80 L 140 81 L 139 80 L 139 80 L 138 80 L 138 80 L 138 80 L 139 80 L 138 81 L 138 80 L 138 79 L 138 80 L 139 81 L 139 81 L 138 80 L 137 80 L 138 80 L 139 79 L 138 79 L 137 80 L 138 80 L 138 80 L 137 80 L 136 81 L 137 82 L 138 82 L 138 82 L 138 82 L 139 82 L 138 83 L 137 84 L 137 83 L 136 84 L 137 83 L 137 82 L 136 82 L 135 83 L 135 82 L 136 81 L 137 82 L 137 82 L 137 83 L 138 84 L 137 85 L 136 86 L 137 85 L 137 85 L 137 86 L 136 87 L 136 88 L 137 89 L 136 89 L 136 89 L 136 90 L 135 90 L 135 89 L 136 90 L 136 91 L 137 90 L 137 90 L 137 89 L 136 88 L 136 87 L 135 87 L 135 88 L 134 88 L 135 88 L 134 88 L 133 88 L 132 89 L 131 89 L 130 90 L 131 89 L 131 90 L 132 91 L 132 92 L 132 91 L 132 91 L 133 92 L 132 91 L 133 90 L 132 89 L 132 88 L 133 89 L 134 88 L 134 87 L 134 88 L 133 88 L 133 89 L 134 90 L 135 90 L 136 91 L 137 92 L 137 92 L 136 91 L 137 90 L 137 90 L 138 90 L 138 89 L 138 89 L 138 89 L 139 88 L 139 89 L 140 90 L 141 91 L 140 90 L 141 89 L 142 88 L 143 89 L 144 89 L 144 90 L 145 89 L 145 90 L 145 90 L 145 91 L 146 92 L 145 91 L 145 90 L 145 89 L 144 90 L 145 89 L 144 88 L 144 89 L 144 89 L 144 90 L 145 89 L 145 88 L 145 88 L 146 88 L 147 87 L 148 86 L 149 87 L 148 87 L 148 87 L 149 87 L 148 86 L 148 85 L 149 84 L 150 83 L 149 83 L 148 83 L 147 83 L 148 82 L 147 82 L 146 81 L 145 81 L 146 81 L 147 82 L 146 83 L 145 82 L 144 81 L 144 80 L 144 80 L 145 81 L 144 81 L 144 81 L 143 81 L 144 82 L 145 82 L 144 82 L 145 81 L 146 81 L 147 80 L 147 80 L 148 79 L 148 79 L 148 78 L 149 79 L 149 80 L 148 80 L 149 80 L 149 79 L 149 78 L 149 79 L 148 80 L 148 81 L 149 81 L 148 81 L 148 80 L 148 79 L 148 79 L 149 80 L 150 81 L 149 80 L 148 79 L 148 80 L 148 80 L 148 81 L 147 81 L 146 81 L 146 82 L 146 83 L 147 82 L 146 82 L 146 81 L 146 82 L 146 81 L 147 82 L 147 82 L 146 83 L 147 82 L 147 82 L 146 82 L 145 83 L 146 83 L 146 84 L 146 85 L 146 85 L 145 86 L 144 85 L 145 86 L 144 85 L 144 84 L 143 83 L 142 83 L 143 83 L 142 82 L 142 82 L 141 82 L 140 82 L 141 81 L 141 81 L 141 81 L 142 81 L 143 82 L 143 82 L 142 82 L 142 82 L 142 81 L 142 81 L 142 81 L 142 82 L 143 83 L 142 83 L 142 83 L 142 82 L 141 83 L 142 84 L 142 83 L 143 84 L 143 85 L 144 86 L 143 86 L 143 85 L 142 86 L 143 87 L 143 88 L 143 87 L 142 86 L 143 85 L 142 85 L 142 84 L 141 85 L 140 84 L 141 85 L 142 86 L 142 86 L 141 86 L 140 87 L 141 87 L 140 88 L 140 87 L 141 88 L 142 88 L 141 87 L 141 87 L 142 87 L 141 88 L 142 88 L 143 88 L 142 87 L 141 86 L 142 86 L 143 86 L 144 86 L 144 86 L 145 86 L 144 87 L 143 86 L 142 85 L 143 85 L 143 84 L 142 83 L 141 82 L 141 81 L 141 81 L 141 80 L 140 79 L 139 80 L 139 81 L 139 80 L 140 79 L 139 80 L 140 79 L 141 79 L 140 78 L 141 79 L 140 79 L 141 80 L 141 81 L 142 80 L 141 81 L 140 80 L 140 81 L 139 81 L 139 82 L 138 82 L 139 81 L 140 82 L 139 81 L 140 81 L 139 81 L 138 82 L 138 83 L 137 83 L 138 84 L 138 84 L 138 85 L 139 86 L 139 87 L 139 86 L 140 85 L 139 84 L 140 84 L 139 84 L 138 83 L 137 83 L 137 82 L 137 83 L 137 84 L 137 83 L 136 82 L 137 81 L 137 82 L 136 83 L 137 83 L 136 84 L 135 84 L 134 84 L 135 85 L 134 86 L 135 87 L 135 87 L 134 86 L 133 85 L 134 86 L 133 87 L 134 88 L 135 87 L 134 88 L 134 89 L 135 89 L 135 88 L 136 87 L 136 88 L 135 89 L 136 88 L 137 88 L 138 88 L 139 87 L 139 86 L 140 86 L 139 86 L 140 87 L 139 87 L 139 87 L 138 87 L 139 88 L 140 87 L 139 86 L 139 85 L 140 86 L 140 86 L 139 87 L 139 86 L 139 86 L 138 86 L 137 87 L 137 86 L 138 86 L 138 86 L 137 85 L 137 84 L 136 85 L 136 84 L 135 83 L 135 82 L 136 83 L 135 82 L 135 82 L 136 83 L 136 82 L 137 81 L 136 82 L 135 82 L 134 83 L 133 82 L 133 81 L 133 82 L 133 82 L 132 82 L 133 83 L 133 83 L 133 82 L 134 81 L 135 81 L 134 80 L 133 79 L 133 80 L 133 79 L 133 78 L 134 79 L 135 79 L 135 78 L 136 78 L 136 78 L 137 78 L 137 79 L 137 79 L 137 80 L 137 81 L 136 82 L 136 82 L 136 83 L 136 83 L 137 84 L 138 83 L 137 82 L 137 82 L 138 81 L 139 80 L 138 81 L 137 80 L 136 80 L 137 79 L 137 80 L 138 80 L 138 79 L 139 80 L 138 79 L 139 78 L 139 78 L 138 77 L 138 76 L 137 76 L 136 75 L 137 74 L 136 75 L 136 76 L 137 76 L 138 76 L 138 76 L 138 75 L 138 76 L 138 76 L 137 76 L 136 76 L 137 75 L 138 75 L 138 76 L 138 76 L 137 76 L 136 75 L 136 76 L 136 75 L 136 74 L 136 75 L 137 75 L 137 75 L 137 75 L 137 75 L 136 76 L 135 77 L 135 77 L 135 77 L 136 76 L 137 77 L 136 78 L 135 78 L 134 78 L 134 78 L 135 78 L 135 78 L 134 77 L 135 78 L 136 77 L 135 78 L 136 77 L 137 76 L 136 75 L 135 75 L 136 75 L 137 75 L 136 76 L 135 75 L 136 75 L 137 74 L 138 74 L 138 75 L 137 76 L 137 77 L 137 78 L 137 78 L 138 78 L 139 78 L 138 78 L 138 77 L 137 78 L 137 77 L 136 78 L 136 79 L 136 80 L 136 80 L 136 80 L 135 79 L 135 79 L 134 80 L 133 81 L 134 80 L 135 79 L 135 79 L 135 79 L 135 78 L 134 79 L 135 78 L 134 79 L 133 80 L 133 81 L 133 81 L 133 80 L 133 79 L 133 79 L 134 80 L 134 80 L 135 80 L 134 81 L 133 81 L 134 81 L 133 80 L 134 80 L 135 79 L 136 78 L 135 78 L 135 78 L 136 79 L 137 78 L 136 78 L 136 79 L 137 80 L 137 80 L 136 80 L 136 79 L 136 78 L 135 78 L 135 78 L 134 77 L 134 77 L 134 76 L 133 77 L 133 77 L 132 77 L 131 77 L 132 78 L 131 79 L 131 78 L 130 77 L 130 78 L 130 79 L 129 80 L 130 81 L 131 81 L 131 80 L 130 80 L 129 80 L 128 79 L 128 78 L 129 77 L 130 76 L 131 76 L 132 76 L 131 77 L 131 76 L 131 76 L 132 75 L 133 74 L 133 75 L 133 75 L 132 75 L 132 74 L 133 73 L 133 72 L 134 73 L 134 72 L 133 72 L 134 72 L 133 73 L 132 74 L 133 74 L 133 73 L 134 73 L 135 74 L 134 73 L 135 72 L 136 72 L 135 71 L 136 72 L 137 72 L 137 73 L 136 73 L 135 73 L 136 74 L 137 74 L 136 75 L 137 75 L 137 74 L 137 74 L 137 73 L 137 73 L 137 74 L 136 73 L 136 74 L 135 75 L 135 76 L 135 76 L 134 77 L 135 77 L 134 76 L 135 77 L 134 76 L 133 76 L 134 75 L 135 75 L 134 75 L 133 75 L 134 75 L 135 75 L 136 74 L 136 73 L 136 72 L 135 73 L 136 72 L 136 73 L 135 73 L 135 74 L 135 73 L 135 74 L 134 75 L 135 74 L 134 73 L 134 73 L 133 73 L 134 74 L 133 74 L 133 73 L 132 72 L 131 71 L 131 70 L 130 70 L 131 69 L 131 68 L 132 69 L 133 68 L 133 68 L 132 67 L 133 66 L 134 66 L 135 66 L 134 67 L 134 67 L 135 67 L 134 67 L 133 68 L 132 68 L 131 67 L 132 68 L 131 68 L 130 68 L 131 69 L 132 68 L 132 67 L 132 67 L 131 67 L 131 66 L 130 66 L 130 65 L 130 65 L 130 65 L 130 65 L 129 64 L 129 65 L 129 64 L 128 64 L 129 64 L 130 63 L 131 63 L 131 64 L 132 63 L 131 62 L 130 63 L 129 62 L 128 62 L 129 62 L 128 61 L 129 60 L 128 60 L 127 59 L 128 59 L 127 60 L 127 61 L 128 62 L 128 63 L 129 64 L 128 63 L 129 63 L 129 63 L 128 64 L 129 63 L 128 63 L 129 64 L 128 64 L 129 65 L 130 65 L 131 65 L 130 64 L 129 65 L 128 65 L 127 64 L 128 63 L 128 62 L 128 62 L 127 62 L 127 61 L 128 62 L 128 63 L 128 63 L 127 62 L 127 62 L 126 62 L 125 63 L 124 62 L 123 62 L 122 62 L 122 61 L 122 62 L 123 61 L 122 61 L 122 60 L 121 60 L 120 59 L 121 59 L 122 60 L 121 60 L 120 60 L 119 59 L 120 58 L 121 57 L 120 57 L 120 56 L 119 55 L 120 54 L 121 53 L 120 54 L 120 53 L 119 52 L 120 51 L 120 52 L 120 51 L 120 51 L 119 52 L 118 53 L 117 54 L 117 55 L 118 56 L 118 56 L 118 56 L 119 57 L 120 56 L 119 55 L 120 56 L 120 55 L 121 55 L 120 56 L 121 57 L 122 56 L 123 55 L 122 55 L 121 54 L 120 54 L 120 54 L 119 54 L 119 55 L 120 55 L 121 56 L 122 55 L 121 55 L 122 54 L 121 54 L 120 54 L 119 53 L 120 52 L 119 52 L 120 53 L 119 54 L 118 55 L 119 55 L 120 55 L 120 54 L 119 55 L 118 56 L 119 57 L 118 56 L 119 57 L 118 58 L 118 57 L 119 56 L 118 57 L 117 56 L 117 57 L 118 58 L 119 57 L 120 56 L 120 55 L 121 56 L 122 57 L 122 58 L 123 58 L 124 57 L 123 56 L 122 55 L 123 55 L 123 54 L 124 53 L 123 52 L 122 51 L 121 52 L 120 53 L 120 54 L 121 53 L 122 54 L 121 54 L 121 55 L 121 54 L 120 53 L 121 53 L 120 54 L 121 53 L 121 54 L 121 55 L 120 54 L 120 54 L 119 54 L 118 53 L 119 54 L 119 55 L 118 54 L 119 53 L 120 52 L 121 52 L 121 53 L 122 53 L 122 54 L 122 54 L 123 53 L 122 54 L 122 55 L 121 55 L 120 56 L 119 57 L 120 57 L 119 58 L 120 58 L 120 57 L 120 57 L 119 56 L 118 56 L 119 55 L 119 55 L 118 55 L 117 54 L 118 53 L 119 53 L 118 54 L 117 53 L 118 52 L 118 53 L 119 54 L 120 54 L 119 55 L 118 54 L 117 55 L 116 56 L 116 56 L 117 57 L 116 56 L 116 56 L 116 55 L 116 54 L 115 53 L 114 52 L 114 52 L 115 52 L 114 51 L 114 51 L 114 51 L 113 51 L 114 50 L 115 49 L 115 48 L 115 49 L 114 49 L 114 49 L 114 49 L 115 50 L 115 49 L 115 50 L 116 51 L 117 52 L 118 51 L 119 52 L 120 52 L 119 53 L 120 52 L 119 51 L 119 52 L 120 53 L 120 53 L 121 53 L 120 54 L 119 55 L 119 56 L 119 57 L 120 56 L 120 55 L 119 56 L 119 56 L 118 56 L 118 56 L 118 56 L 117 56 L 116 56 L 117 57 L 118 58 L 117 58 L 118 58 L 119 58 L 118 57 L 118 58 L 119 58 L 119 58 L 118 58 L 119 57 L 118 58 L 119 58 L 119 57 L 119 58 L 120 58 L 119 58 L 120 58 L 121 57 L 120 58 L 120 59 L 121 60 L 121 61 L 122 61 L 122 62 L 123 63 L 122 62 L 123 63 L 123 64 L 123 63 L 123 63 L 124 62 L 123 63 L 122 63 L 122 62 L 123 62 L 123 61 L 123 60 L 124 59 L 125 58 L 124 58 L 123 57 L 124 57 L 125 56 L 124 56 L 123 56 L 123 57 L 124 56 L 124 55 L 125 55 L 125 54 L 125 55 L 125 54 L 124 53 L 123 54 L 123 54 L 123 55 L 122 56 L 121 57 L 122 56 L 122 56 L 122 56 L 123 56 L 124 57 L 125 56 L 124 56 L 125 55 L 126 54 L 125 54 L 126 55 L 127 56 L 127 57 L 128 58 L 127 57 L 126 56 L 125 56 L 125 57 L 124 57 L 123 58 L 124 59 L 124 58 L 125 59 L 125 59 L 125 59 L 124 58 L 125 58 L 124 58 L 125 57 L 124 57 L 123 56 L 124 57 L 125 57 L 124 56 L 125 55 L 124 56 L 125 55 L 126 55 L 126 55 L 126 54 L 126 55 L 127 54 L 126 54 L 125 55 L 124 56 L 125 56 L 125 57 L 125 56 L 125 57 L 126 57 L 126 57 L 126 56 L 127 55 L 127 55 L 128 55 L 128 56 L 129 57 L 130 57 L 130 57 L 130 57 L 131 58 L 130 57 L 131 56 L 131 56 L 130 55 L 129 54 L 130 54 L 131 54 L 131 53 L 132 52 L 133 53 L 134 52 L 134 53 L 135 53 L 135 52 L 135 53 L 135 54 L 134 55 L 134 55 L 133 55 L 134 56 L 135 55 L 135 56 L 134 55 L 135 55 L 134 54 L 133 53 L 133 53 L 132 54 L 133 55 L 134 55 L 133 55 L 133 55 L 133 54 L 133 54 L 132 55 L 131 55 L 130 54 L 129 55 L 130 54 L 131 53 L 132 54 L 131 54 L 130 55 L 131 56 L 130 55 L 131 55 L 130 56 L 130 57 L 129 58 L 128 57 L 127 57 L 127 58 L 127 58 L 128 59 L 129 59 L 128 59 L 127 59 L 127 58 L 128 57 L 127 56 L 127 55 L 127 55 L 128 56 L 128 56 L 129 56 L 130 55 L 130 55 L 131 54 L 131 55 L 131 54 L 130 55 L 130 55 L 130 55 L 130 56 L 131 57 L 132 56 L 132 55 L 131 55 L 132 54 L 132 53 L 131 53 L 130 52 L 129 51 L 128 50 L 127 50 L 126 51 L 126 50 L 125 51 L 126 52 L 126 52 L 127 53 L 126 54 L 125 55 L 124 55 L 125 56 L 124 56 L 124 55 L 124 55 L 124 56 L 125 56 L 126 55 L 126 55 L 127 54 L 126 53 L 127 53 L 126 53 L 127 53 L 126 52 L 127 51 L 126 50 L 127 50 L 128 50 L 127 51 L 126 50 L 127 49 L 127 49 L 126 50 L 125 51 L 125 50 L 126 50 L 127 50 L 128 50 L 127 51 L 127 52 L 126 51 L 125 52 L 125 53 L 126 52 L 127 51 L 128 50 L 128 51 L 127 52 L 126 53 L 126 54 L 126 54 L 125 53 L 124 52 L 123 53 L 124 54 L 123 54 L 123 54 L 122 55 L 121 56 L 122 55 L 122 54 L 123 55 L 123 56 L 122 56 L 121 57 L 122 57 L 121 56 L 122 55 L 121 55 L 122 56 L 123 56 L 122 57 L 122 58 L 122 58 L 123 57 L 124 58 L 124 58 L 124 58 L 125 58 L 125 58 L 125 59 L 124 58 L 125 57 L 124 56 L 124 57 L 123 58 L 124 57 L 125 57 L 126 56 L 125 56 L 124 55 L 123 54 L 124 53 L 125 54 L 126 53 L 125 54 L 126 55 L 127 55 L 128 55 L 128 55 L 129 54 L 129 53 L 129 53 L 130 54 L 129 54 L 129 53 L 130 54 L 129 54 L 128 53 L 128 53 L 128 53 L 129 54 L 128 55 L 129 55 L 129 55 L 130 55 L 129 54 L 129 53 L 129 54 L 129 53 L 129 53 L 130 53 L 130 53 L 129 54 L 128 53 L 128 53 L 127 53 L 128 53 L 128 52 L 129 52 L 129 52 L 129 53 L 128 54 L 128 55 L 129 56 L 130 57 L 131 56 L 132 55 L 132 56 L 132 56 L 133 56 L 132 56 L 132 55 L 132 54 L 132 53 L 132 53 L 133 54 L 134 55 L 135 55 L 134 54 L 133 53 L 134 54 L 133 54 L 134 55 L 135 56 L 136 55 L 136 54 L 136 55 L 137 55 L 137 55 L 137 55 L 138 54 L 138 53 L 137 52 L 137 51 L 136 50 L 135 50 L 135 50 L 135 49 L 135 48 L 134 47 L 134 46 L 133 45 L 133 46 L 132 45 L 132 44 L 132 44 L 131 43 L 132 44 L 133 45 L 134 44 L 134 44 L 134 43 L 133 44 L 134 45 L 134 46 L 135 47 L 135 47 L 135 48 L 136 48 L 135 48 L 134 48 L 135 49 L 136 49 L 135 48 L 136 47 L 135 47 L 135 48 L 135 49 L 135 48 L 135 47 L 134 48 L 135 48 L 135 47 L 136 47 L 135 46 L 134 47 L 133 46 L 133 47 L 133 46 L 134 46 L 134 46 L 134 45 L 134 46 L 133 47 L 134 47 L 134 46 L 135 47 L 136 47 L 137 46 L 138 46 L 138 46 L 138 47 L 138 46 L 138 47 L 137 47 L 136 48 L 137 47 L 136 47 L 136 47 L 136 48 L 136 48 L 137 48 L 136 47 L 137 48 L 138 48 L 138 49 L 139 50 L 139 49 L 139 50 L 140 50 L 139 50 L 139 51 L 140 52 L 139 52 L 139 51 L 138 52 L 139 53 L 138 52 L 138 52 L 137 51 L 138 50 L 138 49 L 137 50 L 137 49 L 138 49 L 139 50 L 140 50 L 139 49 L 140 50 L 139 50 L 140 49 L 139 48 L 140 48 L 140 48 L 141 49 L 140 48 L 139 49 L 138 50 L 137 50 L 136 50 L 135 51 L 134 51 L 133 52 L 133 53 L 132 52 L 131 52 L 132 53 L 132 52 L 132 53 L 133 52 L 132 52 L 132 52 L 132 51 L 133 51 L 134 52 L 133 53 L 133 52 L 132 53 L 133 53 L 134 52 L 134 52 L 133 53 L 132 53 L 133 52 L 133 51 L 133 50 L 132 50 L 133 49 L 132 49 L 132 49 L 131 50 L 131 49 L 132 48 L 131 48 L 130 48 L 130 47 L 129 48 L 130 48 L 130 48 L 130 48 L 130 48 L 131 48 L 132 47 L 131 47 L 131 46 L 131 47 L 130 47 L 129 47 L 129 47 L 129 46 L 128 47 L 127 46 L 127 47 L 128 48 L 129 48 L 128 48 L 129 49 L 128 50 L 128 49 L 129 49 L 128 50 L 128 51 L 128 50 L 129 51 L 128 50 L 129 51 L 128 51 L 128 50 L 129 50 L 128 50 L 129 49 L 128 50 L 129 49 L 128 50 L 129 50 L 130 50 L 130 51 L 131 50 L 131 49 L 130 50 L 131 50 L 130 49 L 130 49 L 130 48 L 131 49 L 132 50 L 132 50 L 132 50 L 131 50 L 131 51 L 131 51 L 131 50 L 131 49 L 131 49 L 132 48 L 132 48 L 131 48 L 131 47 L 131 48 L 131 48 L 130 47 L 130 46 L 129 45 L 128 46 L 128 46 L 129 45 L 129 46 L 129 47 L 130 47 L 131 48 L 132 49 L 132 49 L 133 48 L 133 48 L 134 49 L 133 49 L 133 50 L 134 51 L 134 51 L 134 51 L 134 51 L 133 50 L 134 49 L 133 48 L 132 47 L 132 47 L 133 48 L 134 47 L 135 47 L 134 46 L 134 46 L 133 46 L 134 47 L 134 47 L 135 48 L 135 47 L 134 48 L 133 47 L 132 48 L 131 47 L 132 47 L 131 48 L 130 48 L 130 47 L 129 48 L 128 47 L 129 46 L 130 45 L 131 44 L 132 43 L 133 43 L 132 42 L 132 43 L 131 43 L 132 43 L 133 43 L 133 42 L 133 42 L 133 43 L 134 44 L 134 45 L 134 46 L 134 46 L 135 45 L 136 44 L 136 44 L 136 45 L 135 46 L 134 47 L 134 46 L 135 45 L 136 44 L 135 45 L 134 45 L 133 46 L 133 46 L 132 47 L 132 48 L 133 48 L 132 48 L 131 49 L 130 50 L 131 49 L 132 49 L 131 50 L 130 51 L 129 52 L 128 51 L 128 50 L 128 50 L 127 49 L 126 49 L 127 48 L 127 49 L 127 48 L 128 49 L 129 48 L 129 48 L 128 47 L 128 46 L 129 47 L 128 46 L 128 47 L 127 46 L 128 46 L 127 47 L 128 48 L 127 47 L 128 47 L 128 47 L 128 48 L 128 48 L 128 47 L 128 48 L 127 47 L 128 47 L 127 47 L 127 46 L 126 46 L 125 46 L 124 45 L 124 46 L 125 46 L 126 45 L 126 45 L 126 44 L 126 43 L 126 43 L 125 42 L 125 42 L 126 42 L 125 43 L 125 44 L 124 44 L 125 45 L 125 45 L 125 45 L 125 46 L 124 45 L 124 44 L 123 44 L 122 44 L 122 45 L 123 46 L 123 46 L 124 45 L 124 44 L 123 44 L 122 45 L 123 45 L 122 45 L 123 46 L 122 47 L 123 47 L 123 46 L 122 46 L 123 46 L 124 46 L 124 47 L 125 48 L 126 49 L 127 49 L 126 49 L 125 48 L 124 47 L 123 47 L 123 47 L 122 48 L 122 48 L 121 47 L 120 47 L 119 46 L 118 45 L 117 44 L 117 45 L 118 46 L 118 45 L 119 46 L 120 47 L 121 48 L 121 49 L 121 48 L 122 49 L 123 49 L 124 48 L 125 47 L 126 46 L 127 46 L 127 47 L 128 47 L 129 46 L 130 45 L 130 45 L 130 46 L 131 45 L 130 46 L 129 47 L 129 48 L 129 47 L 128 47 L 129 46 L 130 45 L 129 45 L 129 45 L 129 44 L 129 44 L 128 43 L 128 43 L 127 42 L 126 43 L 126 43 L 126 44 L 126 43 L 126 44 L 127 45 L 128 44 L 128 44 L 129 44 L 128 43 L 127 42 L 126 43 L 126 43 L 126 44 L 126 45 L 127 46 L 128 47 L 127 47 L 128 48 L 127 47 L 128 47 L 128 48 L 127 48 L 126 49 L 125 49 L 126 48 L 125 47 L 126 47 L 126 48 L 126 47 L 125 48 L 126 48 L 126 48 L 126 49 L 125 49 L 124 48 L 124 48 L 123 49 L 124 49 L 123 50 L 122 49 L 123 48 L 122 47 L 122 46 L 122 45 L 121 45 L 120 45 L 121 46 L 120 47 L 119 47 L 120 46 L 119 46 L 120 46 L 119 47 L 118 48 L 118 49 L 117 49 L 118 50 L 117 50 L 117 50 L 117 49 L 118 48 L 119 47 L 119 47 L 120 48 L 119 47 L 120 46 L 120 47 L 119 47 L 120 47 L 119 48 L 119 47 L 118 46 L 118 46 L 119 46 L 118 46 L 117 45 L 116 45 L 116 46 L 115 47 L 114 46 L 113 46 L 113 46 L 112 45 L 113 45 L 114 45 L 114 44 L 113 44 L 114 45 L 114 46 L 113 45 L 113 46 L 114 45 L 114 44 L 114 45 L 113 46 L 113 46 L 114 45 L 115 45 L 114 45 L 115 46 L 114 45 L 114 45 L 115 44 L 114 43 L 113 44 L 113 45 L 114 46 L 115 47 L 114 46 L 115 45 L 114 46 L 115 46 L 114 45 L 114 44 L 113 45 L 112 45 L 112 44 L 112 43 L 113 44 L 113 43 L 113 42 L 114 42 L 114 42 L 115 43 L 116 44 L 116 43 L 117 44 L 116 43 L 117 43 L 118 42 L 117 42 L 117 41 L 116 41 L 117 40 L 116 39 L 115 40 L 116 41 L 115 42 L 116 42 L 115 42 L 116 41 L 115 40 L 115 39 L 114 40 L 115 41 L 115 42 L 116 43 L 117 42 L 117 42 L 117 41 L 118 41 L 119 40 L 118 40 L 117 40 L 116 40 L 117 39 L 118 38 L 118 39 L 119 40 L 120 41 L 121 41 L 120 40 L 119 40 L 120 40 L 121 39 L 122 40 L 123 39 L 123 38 L 122 39 L 122 40 L 123 39 L 124 38 L 123 39 L 124 40 L 124 39 L 125 40 L 126 40 L 125 41 L 125 40 L 126 41 L 125 40 L 126 39 L 126 40 L 126 39 L 125 40 L 124 40 L 124 40 L 123 41 L 123 40 L 123 39 L 124 38 L 125 39 L 125 40 L 125 39 L 126 38 L 127 39 L 128 38 L 128 39 L 128 38 L 127 38 L 127 38 L 127 37 L 127 36 L 126 37 L 127 37 L 127 36 L 128 36 L 127 37 L 128 37 L 129 37 L 128 38 L 127 38 L 126 37 L 126 37 L 125 38 L 124 39 L 123 39 L 124 40 L 124 39 L 124 38 L 123 37 L 124 37 L 125 36 L 125 37 L 125 37 L 124 38 L 123 39 L 123 40 L 123 41 L 123 41 L 122 41 L 121 42 L 121 42 L 122 42 L 122 43 L 123 43 L 124 43 L 125 43 L 124 43 L 123 44 L 122 43 L 122 43 L 122 44 L 123 44 L 122 44 L 123 44 L 123 44 L 124 44 L 124 44 L 124 43 L 123 42 L 122 43 L 121 43 L 122 44 L 123 44 L 124 44 L 123 43 L 124 44 L 124 45 L 123 44 L 123 43 L 122 44 L 121 43 L 121 43 L 121 44 L 122 44 L 122 45 L 123 45 L 122 46 L 122 45 L 122 46 L 121 47 L 120 47 L 120 48 L 121 47 L 120 46 L 121 46 L 121 45 L 121 45 L 120 46 L 121 46 L 121 46 L 120 46 L 120 46 L 119 47 L 119 46 L 120 45 L 119 46 L 120 47 L 120 47 L 120 47 L 120 47 L 121 48 L 120 48 L 121 48 L 120 47 L 119 47 L 118 48 L 119 47 L 120 48 L 120 47 L 119 48 L 120 49 L 119 50 L 120 49 L 121 49 L 122 50 L 122 51 L 121 51 L 121 52 L 121 52 L 120 52 L 121 53 L 120 54 L 119 55 L 119 55 L 118 54 L 118 53 L 117 52 L 116 53 L 115 54 L 115 55 L 115 56 L 115 55 L 116 55 L 115 54 L 116 54 L 117 55 L 116 55 L 116 54 L 115 55 L 115 54 L 116 54 L 117 54 L 118 54 L 117 53 L 118 54 L 117 55 L 118 54 L 118 53 L 117 53 L 117 53 L 117 52 L 117 51 L 116 52 L 115 52 L 115 52 L 115 52 L 114 52 L 113 53 L 113 52 L 113 51 L 113 52 L 114 51 L 113 51 L 113 51 L 114 50 L 114 51 L 115 51 L 114 50 L 115 49 L 114 50 L 113 50 L 114 50 L 113 49 L 113 50 L 114 49 L 115 48 L 115 48 L 116 48 L 117 47 L 116 47 L 117 47 L 118 46 L 117 47 L 116 47 L 117 47 L 116 46 L 117 46 L 117 47 L 118 47 L 117 47 L 117 48 L 116 48 L 117 48 L 117 48 L 118 47 L 119 47 L 120 47 L 121 46 L 122 46 L 121 47 L 120 46 L 119 46 L 120 45 L 119 45 L 119 44 L 119 45 L 120 44 L 121 45 L 120 45 L 121 45 L 121 45 L 122 45 L 121 44 L 121 45 L 122 46 L 121 46 L 121 47 L 121 47 L 120 47 L 121 48 L 120 47 L 120 46 L 119 45 L 120 46 L 121 45 L 121 46 L 122 45 L 123 44 L 123 44 L 123 44 L 122 43 L 123 43 L 124 42 L 124 41 L 124 40 L 125 39 L 124 40 L 124 39 L 125 39 L 125 40 L 124 41 L 124 40 L 123 41 L 124 42 L 125 43 L 124 43 L 123 43 L 122 42 L 121 42 L 120 41 L 119 42 L 119 42 L 118 43 L 119 43 L 120 42 L 120 42 L 120 42 L 119 42 L 120 41 L 121 42 L 120 42 L 121 43 L 122 43 L 121 44 L 120 44 L 120 44 L 121 43 L 121 44 L 121 43 L 122 43 L 121 44 L 121 43 L 121 43 L 120 43 L 119 44 L 119 45 L 120 45 L 121 44 L 121 45 L 120 44 L 121 44 L 122 45 L 122 45 L 123 46 L 124 45 L 125 46 L 125 47 L 126 47 L 126 46 L 126 46 L 126 46 L 127 45 L 128 44 L 129 43 L 130 43 L 130 42 L 130 41 L 131 42 L 132 42 L 132 42 L 131 42 L 131 41 L 132 42 L 133 42 L 133 43 L 134 43 L 133 43 L 134 42 L 133 43 L 132 44 L 131 45 L 132 45 L 131 44 L 131 44 L 130 45 L 131 45 L 131 46 L 131 47 L 130 47 L 129 47 L 128 47 L 128 47 L 127 46 L 128 45 L 128 44 L 127 43 L 126 43 L 127 42 L 128 41 L 129 41 L 129 41 L 128 40 L 128 41 L 127 41 L 128 42 L 128 41 L 127 40 L 126 41 L 126 40 L 126 40 L 125 39 L 124 39 L 125 38 L 124 39 L 125 40 L 125 40 L 125 40 L 126 39 L 127 39 L 127 40 L 128 40 L 127 41 L 126 42 L 127 43 L 126 43 L 125 42 L 125 42 L 125 43 L 125 43 L 126 43 L 125 43 L 126 43 L 126 43 L 125 44 L 125 45 L 126 45 L 125 45 L 125 45 L 124 44 L 125 44 L 124 43 L 123 44 L 122 43 L 123 43 L 122 42 L 122 42 L 122 41 L 122 42 L 123 42 L 124 42 L 123 43 L 122 44 L 123 44 L 122 45 L 123 45 L 122 44 L 122 44 L 123 44 L 124 44 L 123 44 L 122 43 L 122 43 L 122 43 L 123 44 L 123 43 L 124 43 L 123 44 L 123 44 L 123 44 L 123 43 L 123 43 L 122 43 L 122 42 L 122 43 L 123 44 L 124 45 L 125 44 L 124 43 L 123 43 L 124 42 L 125 41 L 126 42 L 126 41 L 125 42 L 124 42 L 123 41 L 123 40 L 122 39 L 122 38 L 121 37 L 121 38 L 120 38 L 119 38 L 120 38 L 119 38 L 119 37 L 119 38 L 119 39 L 120 40 L 121 40 L 122 41 L 121 42 L 120 41 L 120 42 L 121 42 L 120 42 L 120 43 L 121 42 L 122 41 L 121 41 L 120 40 L 119 39 L 119 39 L 118 39 L 117 38 L 118 38 L 118 38 L 118 39 L 117 38 L 117 38 L 117 37 L 117 38 L 116 39 L 117 38 L 117 39 L 116 40 L 117 39 L 117 40 L 118 39 L 117 40 L 116 41 L 115 41 L 116 42 L 115 41 L 114 40 L 115 40 L 115 41 L 114 42 L 113 42 L 112 42 L 111 42 L 112 43 L 113 43 L 112 43 L 112 42 L 113 41 L 113 40 L 114 40 L 113 41 L 113 42 L 114 41 L 114 42 L 115 42 L 116 42 L 117 41 L 118 41 L 118 40 L 118 39 L 118 40 L 118 41 L 118 40 L 119 40 L 120 40 L 121 41 L 121 40 L 121 41 L 121 40 L 122 40 L 122 39 L 121 38 L 120 39 L 119 39 L 119 40 L 120 40 L 121 39 L 120 40 L 120 39 L 121 38 L 120 38 L 119 38 L 118 39 L 118 38 L 117 38 L 117 39 L 116 38 L 115 39 L 116 39 L 116 38 L 117 38 L 117 38 L 118 38 L 117 39 L 118 40 L 117 40 L 118 41 L 118 41 L 117 41 L 116 40 L 117 41 L 116 41 L 116 41 L 117 42 L 116 43 L 117 43 L 117 42 L 116 42 L 116 42 L 115 42 L 115 41 L 114 42 L 114 43 L 113 44 L 113 45 L 113 46 L 114 46 L 113 47 L 114 47 L 115 46 L 116 46 L 117 45 L 116 45 L 117 44 L 116 45 L 117 45 L 116 46 L 117 45 L 116 45 L 117 44 L 118 44 L 119 45 L 119 44 L 118 45 L 119 44 L 120 44 L 119 43 L 119 43 L 120 43 L 120 42 L 120 42 L 119 43 L 119 42 L 120 43 L 121 43 L 121 44 L 121 43 L 120 42 L 119 41 L 120 42 L 119 43 L 119 42 L 119 42 L 119 43 L 118 42 L 117 41 L 116 41 L 116 40 L 117 40 L 118 41 L 117 42 L 116 41 L 115 41 L 115 40 L 116 40 L 116 39 L 115 38 L 114 38 L 115 39 L 116 39 L 115 40 L 114 40 L 113 41 L 114 40 L 113 41 L 113 42 L 112 42 L 113 42 L 113 42 L 114 41 L 114 41 L 114 42 L 115 43 L 116 44 L 115 45 L 115 45 L 115 46 L 115 47 L 115 48 L 114 48 L 113 49 L 112 50 L 111 50 L 111 49 L 112 49 L 113 49 L 113 48 L 113 47 L 114 47 L 114 48 L 115 48 L 116 49 L 116 48 L 116 47 L 115 46 L 114 46 L 115 46 L 115 47 L 116 46 L 116 47 L 117 47 L 117 46 L 117 45 L 117 44 L 118 43 L 119 44 L 119 43 L 118 42 L 118 42 L 117 41 L 118 40 L 118 39 L 117 38 L 117 39 L 117 39 L 118 40 L 118 40 L 118 41 L 117 41 L 118 41 L 118 42 L 119 42 L 118 43 L 119 42 L 118 43 L 119 43 L 120 43 L 119 43 L 119 42 L 120 41 L 119 40 L 118 41 L 117 42 L 117 41 L 116 42 L 117 43 L 118 42 L 118 41 L 119 40 L 120 41 L 119 42 L 120 41 L 120 40 L 120 40 L 120 41 L 119 42 L 119 43 L 119 43 L 118 43 L 118 44 L 119 45 L 118 44 L 119 43 L 119 44 L 119 45 L 119 44 L 120 43 L 121 43 L 120 42 L 119 43 L 118 42 L 119 43 L 118 42 L 117 42 L 117 42 L 118 41 L 118 41 L 117 40 L 118 40 L 119 39 L 118 39 L 118 39 L 119 39 L 118 39 L 119 38 L 118 39 L 119 38 L 118 37 L 118 37 L 119 38 L 118 39 L 119 39 L 119 38 L 119 39 L 120 39 L 120 40 L 120 41 L 120 42 L 120 43 L 121 43 L 120 42 L 121 41 L 122 42 L 123 42 L 124 41 L 125 41 L 125 41 L 125 42 L 124 42 L 125 43 L 125 42 L 125 43 L 126 42 L 125 41 L 125 41 L 124 40 L 123 41 L 123 42 L 123 42 L 124 42 L 125 41 L 124 41 L 125 42 L 124 43 L 124 44 L 123 44 L 124 44 L 125 44 L 124 43 L 123 42 L 122 41 L 123 42 L 123 41 L 124 40 L 124 40 L 125 40 L 126 40 L 125 40 L 126 41 L 127 41 L 128 41 L 129 41 L 128 40 L 129 41 L 130 40 L 131 41 L 131 42 L 131 41 L 132 41 L 131 42 L 130 42 L 131 43 L 131 42 L 130 42 L 130 42 L 129 41 L 128 41 L 128 42 L 128 42 L 129 41 L 130 40 L 131 39 L 131 40 L 132 40 L 131 41 L 132 41 L 133 41 L 134 40 L 134 40 L 134 39 L 134 38 L 133 37 L 133 36 L 133 35 L 133 35 L 134 35 L 133 35 L 132 35 L 132 34 L 132 34 L 132 34 L 131 35 L 130 35 L 131 35 L 131 36 L 130 37 L 130 38 L 130 38 L 131 39 L 132 38 L 131 38 L 131 39 L 131 38 L 132 39 L 132 38 L 132 39 L 131 40 L 132 39 L 131 38 L 132 38 L 132 37 L 132 38 L 133 39 L 132 39 L 131 38 L 131 38 L 130 39 L 131 38 L 132 38 L 131 38 L 132 37 L 133 38 L 133 39 L 132 38 L 131 38 L 130 39 L 130 40 L 130 39 L 130 38 L 130 39 L 130 39 L 130 39 L 129 40 L 128 39 L 128 38 L 128 39 L 129 38 L 128 38 L 129 38 L 128 37 L 127 38 L 128 39 L 129 40 L 130 40 L 131 39 L 131 40 L 130 40 L 131 39 L 132 38 L 131 37 L 132 38 L 133 38 L 133 38 L 132 37 L 133 38 L 133 38 L 133 38 L 133 37 L 134 38 L 134 38 L 133 38 L 132 37 L 131 37 L 131 38 L 130 38 L 130 37 L 130 38 L 130 37 L 131 37 L 130 37 L 131 37 L 131 37 L 131 36 L 131 36 L 130 36 L 130 35 L 131 34 L 130 35 L 131 35 L 131 36 L 130 36 L 131 36 L 130 35 L 131 34 L 131 34 L 130 34 L 130 33 L 129 33 L 130 32 L 129 33 L 130 34 L 129 35 L 128 36 L 127 35 L 128 36 L 129 35 L 128 36 L 127 35 L 128 35 L 127 35 L 128 36 L 128 37 L 127 36 L 126 36 L 126 35 L 127 34 L 126 33 L 127 33 L 126 34 L 126 34 L 126 35 L 127 36 L 127 36 L 126 36 L 126 36 L 125 36 L 124 37 L 123 36 L 123 36 L 123 35 L 124 35 L 124 35 L 125 34 L 124 34 L 123 34 L 123 34 L 122 35 L 121 34 L 121 34 L 122 34 L 121 33 L 120 33 L 119 34 L 118 33 L 117 33 L 118 32 L 118 33 L 117 34 L 118 34 L 119 34 L 120 34 L 120 35 L 121 34 L 122 34 L 122 35 L 122 35 L 123 34 L 124 33 L 123 34 L 123 33 L 123 34 L 124 35 L 124 36 L 123 36 L 124 35 L 125 35 L 124 36 L 123 35 L 123 34 L 123 35 L 122 35 L 122 36 L 121 36 L 121 37 L 120 36 L 119 37 L 120 38 L 120 39 L 120 39 L 120 38 L 121 39 L 121 38 L 120 38 L 120 37 L 119 37 L 120 38 L 120 38 L 120 39 L 121 39 L 122 39 L 123 39 L 123 40 L 123 41 L 124 41 L 124 40 L 125 39 L 126 40 L 125 39 L 125 38 L 124 38 L 124 39 L 124 40 L 124 39 L 123 39 L 124 40 L 125 41 L 124 40 L 123 40 L 122 41 L 122 40 L 123 40 L 124 41 L 123 41 L 123 40 L 122 39 L 123 40 L 123 39 L 124 38 L 123 39 L 122 38 L 122 37 L 123 36 L 124 36 L 124 35 L 125 35 L 124 35 L 123 35 L 123 34 L 123 33 L 123 32 L 122 33 L 123 32 L 124 33 L 123 33 L 123 34 L 123 35 L 122 36 L 122 35 L 122 35 L 121 35 L 120 36 L 121 37 L 122 36 L 123 35 L 124 36 L 124 36 L 123 35 L 124 35 L 125 35 L 126 36 L 127 37 L 126 36 L 127 36 L 128 36 L 128 37 L 127 38 L 126 38 L 127 37 L 128 38 L 129 38 L 130 39 L 130 39 L 131 39 L 132 39 L 131 38 L 131 37 L 132 36 L 133 37 L 134 37 L 135 37 L 135 37 L 135 37 L 134 38 L 135 38 L 134 38 L 134 37 L 133 36 L 132 36 L 132 37 L 131 38 L 132 39 L 132 40 L 132 39 L 132 38 L 132 37 L 131 36 L 132 35 L 133 36 L 134 37 L 134 36 L 135 37 L 136 37 L 135 36 L 136 37 L 137 38 L 138 38 L 139 37 L 140 36 L 141 36 L 140 35 L 141 36 L 140 37 L 139 38 L 140 37 L 141 36 L 142 36 L 143 35 L 143 35 L 144 36 L 143 35 L 144 34 L 143 33 L 144 32 L 143 31 L 142 31 L 141 31 L 142 31 L 141 32 L 140 33 L 141 33 L 142 32 L 142 32 L 143 31 L 144 30 L 145 31 L 145 30 L 144 30 L 144 31 L 143 32 L 143 33 L 142 32 L 141 32 L 141 32 L 140 33 L 139 34 L 138 34 L 137 34 L 137 34 L 138 34 L 138 35 L 139 35 L 138 35 L 138 35 L 139 35 L 139 36 L 138 36 L 138 37 L 137 36 L 138 36 L 138 35 L 137 36 L 136 37 L 136 38 L 136 39 L 137 39 L 138 38 L 138 37 L 138 38 L 137 37 L 136 38 L 137 37 L 136 36 L 135 36 L 134 36 L 133 37 L 132 37 L 133 36 L 133 35 L 133 35 L 133 34 L 134 34 L 135 33 L 134 33 L 133 32 L 132 31 L 131 30 L 131 30 L 132 30 L 133 31 L 132 32 L 131 31 L 132 30 L 131 31 L 132 32 L 132 32 L 133 33 L 132 34 L 133 35 L 133 34 L 133 33 L 134 32 L 133 33 L 133 33 L 132 34 L 133 33 L 133 32 L 133 31 L 134 30 L 135 30 L 134 29 L 134 29 L 134 28 L 134 27 L 133 26 L 132 27 L 131 26 L 131 26 L 130 27 L 131 28 L 130 28 L 131 27 L 132 28 L 131 27 L 132 27 L 131 27 L 131 28 L 132 29 L 133 30 L 132 29 L 132 29 L 133 30 L 134 29 L 134 28 L 135 28 L 136 27 L 137 28 L 137 29 L 137 28 L 136 28 L 136 27 L 136 28 L 136 29 L 136 30 L 135 29 L 134 29 L 134 29 L 133 28 L 133 28 L 132 27 L 131 27 L 131 26 L 131 26 L 131 27 L 130 26 L 131 26 L 130 27 L 129 27 L 130 28 L 129 27 L 128 28 L 127 29 L 126 28 L 127 28 L 128 28 L 127 29 L 126 28 L 126 28 L 126 29 L 126 29 L 127 28 L 127 29 L 126 29 L 126 29 L 126 29 L 127 29 L 128 28 L 128 29 L 129 28 L 129 29 L 130 29 L 130 28 L 129 29 L 129 28 L 130 29 L 130 30 L 129 31 L 129 30 L 130 31 L 130 31 L 131 31 L 130 31 L 130 30 L 130 31 L 130 30 L 130 30 L 131 31 L 130 30 L 131 29 L 131 29 L 132 30 L 133 29 L 133 28 L 132 27 L 131 27 L 132 28 L 132 28 L 132 28 L 133 29 L 133 29 L 134 28 L 134 28 L 134 27 L 135 26 L 136 25 L 136 26 L 137 26 L 136 25 L 135 25 L 135 26 L 134 26 L 135 26 L 134 25 L 134 25 L 134 24 L 134 24 L 135 24 L 135 25 L 134 26 L 134 27 L 134 28 L 134 27 L 133 27 L 132 27 L 133 28 L 133 28 L 132 28 L 133 28 L 132 28 L 131 29 L 130 28 L 131 27 L 130 28 L 131 27 L 132 26 L 132 26 L 133 26 L 134 26 L 135 25 L 135 26 L 135 27 L 135 27 L 136 27 L 137 26 L 138 26 L 137 25 L 136 24 L 135 24 L 134 23 L 133 22 L 133 21 L 134 21 L 133 20 L 132 19 L 133 20 L 132 19 L 133 19 L 132 20 L 131 20 L 130 20 L 131 19 L 130 20 L 131 19 L 131 18" />
 <text fill="NAVY" x="180.0" y="2.0" > id:3 ln:152 </text>
 <path stroke="NAVY" fill="white" d="M 57 80 L 57 79 L 56 78 L 55 79 L 54 78 L 53 77 L 53 78 L 52 79 L 51 78 L 52 77 L 51 77 L 52 77 L 53 78 L 52 77 L 51 76 L 50 77 L 50 77 L 51 77 L 50 77 L 50 76 L 49 76 L 50 75 L 51 74 L 51 74 L 52 73 L 52 72 L 53 73 L 53 73 L 52 73 L 51 74 L 51 75 L 50 74 L 51 74 L 51 75 L 52 76 L 51 76 L 51 75 L 51 76 L 50 76 L 50 77 L 50 76 L 50 75 L 50 74 L 51 74 L 50 75 L 50 75 L 50 74 L 51 74 L 51 75 L 51 74 L 51 75 L 50 74 L 49 75 L 48 74 L 48 73 L 47 73 L 47 73 L 48 73 L 48 74 L 48 73 L 49 73 L 49 73 L 48 74 L 48 73 L 47 73 L 47 72 L 47 72 L 48 71 L 47 72 L 48 73 L 48 72 L 47 71 L 46 71 L 45 72 L 44 73 L 43 74 L 44 74 L 43 73 L 44 72 L 44 71 L 43 70 L 42 70 L 42 70 L 42 70 L 43 70 L 43 70 L 44 70 L 43 69 L 44 70 L 43 71 L 44 70 L 43 71 L 44 72 L 44 71 L 44 72 L 43 73 L 43 74 L 43 73 L 44 72 L 43 72 L 42 73 L 43 73 L 44 74 L 43 73 L 43 72 L 44 71 L 43 70 L 43 70 L 43 69 L 44 68 L 43 69 L 42 68 L 43 68 L 42 69 L 43 69 L 42 70 L 41 71 L 40 71 L 39 72 L 39 71 L 40 70 L 39 69 L 38 68 L 37 69 L 36 69 L 35 68 L 34 68 L 34 67 L 34 66 L 33 67 L 33 66 L 33 66 L 33 65 L 34 64 L 33 63 L 34 64 L 33 65 L 33 66 L 32 66 L 31 65 L 31 66 L 31 66 L 30 66 L 31 65 L 31 65 L 30 66 L 29 66 L 30 66 L 30 67 L 30 66 L 31 67 L 31 68" />
 <text fill="ALICEBLUE" x="180.0" y="2.0" > id:4 ln:155 </text>
 <path stroke="ALICEBLUE" fill="white" d="M 125 27 L 124 26 L 123 25 L 123 24 L 123 23 L 124 24 L 124 25 L 123 24 L 122 23 L 122 23 L 122 23 L 122 24 L 122 24 L 121 25 L 120 24 L 121 23 L 122 24 L 123 25 L 124 24 L 123 25 L 124 24 L 123 25 L 122 25 L 121 25 L 120 25 L 121 25 L 122 24 L 123 23 L 124 23 L 124 24 L 123 23 L 122 22 L 121 23 L 120 23 L 119 23 L 120 24 L 121 25 L 121 26 L 121 26 L 122 26 L 123 26 L 124 27 L 123 27 L 122 26 L 123 25 L 124 26 L 125 26 L 124 27 L 125 27 L 126 26 L 126 26 L 126 25 L 127 24 L 128 25 L 128 25 L 127 25 L 127 26 L 126 27 L 126 26 L 127 25 L 127 25 L 128 26 L 127 25 L 126 24 L 125 25 L 126 24 L 126 23 L 125 23 L 125 23 L 124 22 L 125 22 L 125 22 L 125 22 L 125 21 L 125 21 L 126 20 L 126 21 L 125 20 L 124 20 L 123 20 L 124 21 L 124 21 L 125 21 L 124 20 L 125 20 L 125 21 L 125 20 L 125 21 L 124 20 L 124 20 L 124 21 L 123 22 L 123 22 L 122 22 L 121 22 L 121 21 L 122 20 L 121 19 L 122 20 L 121 21 L 120 21 L 119 21 L 119 21 L 118 22 L 119 21 L 119 20 L 119 19 L 119 20 L 118 19 L 117 18 L 116 19 L 117 18 L 117 19 L 117 18 L 117 17 L 116 18 L 115 17 L 114 17 L 115 18 L 115 19 L 114 19 L 115 20 L 114 19 L 115 18 L 114 18 L 113 19 L 114 20 L 115 19 L 114 18 L 114 17 L 115 16 L 114 16 L 114 16 L 115 15 L 115 14 L 114 13 L 114 14 L 114 13 L 114 13 L 115 14 L 115 15 L 114 15 L 115 15 L 116 16 L 117 15 L 116 15 L 116 14 L 115 15 L 116 15 L 116 16 L 116 17 L 115 18 L 116 17 L 117 17 L 116 18" />
 <text fill="THISTLE" x="180.0" y="2.0" > id:5 ln:15 </text>
 <path stroke="THISTLE" fill="white" d="M 126 96 L 126 97 L 127 98 L 126 97 L 125 98 L 126 97 L 126 97 L 125 97 L 124 97 L 125 97 L 126 97 L 125 96 L 124 95 L 124 96 L 124 95" />
 <text fill="DARKMAGENTA" x="180.0" y="2.0" > id:6 ln:28 </text>
 <path stroke="DARKMAGENTA" fill="white" d="M 169 104 L 169 105 L 170 106 L 171 106 L 170 106 L 171 106 L 172 105 L 171 104 L 170 104 L 170 104 L 170 105 L 169 106 L 169 107 L 170 107 L 170 108 L 170 108 L 169 109 L 170 109 L 170 110 L 170 109 L 170 109 L 169 108 L 169 107 L 170 108 L 169 107 L 170 108 L 169 109 L 170 109" />
 <text fill="LIGHTSKYBLUE" x="180.0" y="2.0" > id:7 ln:19 </text>
 <path stroke="LIGHTSKYBLUE" fill="white" d="M 145 32 L 146 33 L 146 34 L 146 33 L 146 33 L 146 33 L 146 33 L 145 34 L 146 33 L 147 32 L 147 32 L 148 32 L 147 33 L 147 33 L 147 32 L 148 33 L 149 34 L 150 33 L 151 33" />
 <text fill="GREENYELLOW" x="180.0" y="2.0" > id:8 ln:662 </text>
 <path stroke="GREENYELLOW" fill="white" d="M 74 96 L 74 95 L 75 96 L 74 96 L 73 96 L 73 97 L 72 96 L 71 96 L 72 96 L 72 96 L 71 97 L 71 98 L 70 99 L 71 100 L 72 100 L 73 101 L 73 101 L 74 101 L 73 101 L 73 102 L 72 103 L 73 103 L 74 104 L 74 105 L 75 105 L 75 105 L 75 105 L 74 105 L 73 104 L 74 103 L 74 103 L 75 104 L 74 105 L 74 106 L 75 107 L 76 108 L 76 107 L 76 107 L 77 106 L 78 106 L 78 107 L 77 106 L 76 106 L 77 106 L 77 106 L 78 105 L 77 104 L 77 105 L 76 106 L 76 107 L 76 107 L 77 108 L 78 109 L 78 109 L 79 110 L 78 110 L 77 111 L 76 112 L 75 112 L 75 112 L 75 113 L 75 114 L 76 115 L 75 114 L 76 114 L 77 114 L 78 113 L 77 113 L 77 114 L 78 114 L 78 113 L 79 112 L 80 113 L 79 113 L 78 112 L 78 112 L 77 112 L 76 111 L 77 112 L 78 113 L 78 112 L 77 113 L 76 114 L 76 113 L 76 112 L 76 112 L 76 113 L 75 112 L 75 112 L 76 113 L 76 113 L 77 113 L 77 113 L 78 112 L 79 112 L 79 111 L 78 112 L 79 111 L 78 112 L 77 112 L 76 113 L 77 112 L 78 112 L 78 113 L 78 114 L 79 115 L 79 116 L 78 117 L 77 118 L 77 118 L 78 117 L 79 118 L 78 118 L 77 117 L 76 117 L 76 117 L 77 117 L 77 118 L 78 119 L 78 119 L 79 119 L 80 119 L 80 118 L 81 118 L 80 118 L 80 118 L 79 117 L 78 118 L 79 117 L 78 117 L 78 117 L 77 118 L 77 119 L 78 119 L 79 119 L 78 119 L 79 119 L 78 119 L 77 118 L 76 118 L 75 118 L 76 117 L 76 116 L 76 117 L 76 116 L 76 116 L 77 117 L 76 117 L 77 117 L 77 117 L 77 117 L 76 117 L 76 116 L 76 116 L 75 116 L 74 117 L 73 116 L 72 115 L 72 115 L 72 116 L 71 117 L 71 117 L 72 116 L 72 115 L 72 116 L 71 115 L 70 116 L 69 115 L 68 115 L 69 114 L 68 113 L 69 112 L 69 113 L 70 113 L 71 114 L 71 115 L 71 115 L 70 114 L 69 113 L 68 114 L 67 115 L 66 114 L 65 113 L 64 114 L 64 114 L 65 114 L 66 113 L 67 114 L 68 115 L 67 115 L 68 114 L 69 114 L 70 115 L 71 114 L 70 114 L 70 114 L 69 113 L 70 113 L 69 114 L 70 113 L 71 112 L 71 111 L 70 112 L 70 112 L 70 112 L 71 112 L 72 111 L 71 112 L 72 113 L 71 112 L 72 111 L 73 110 L 74 111 L 75 110 L 76 111 L 75 111 L 75 110 L 74 110 L 74 109 L 75 109 L 74 110 L 74 111 L 73 112 L 73 111 L 73 111 L 73 111 L 72 112 L 71 112 L 70 111 L 69 110 L 69 110 L 70 109 L 70 108 L 70 107 L 69 108 L 69 109 L 68 110 L 68 110 L 68 109 L 69 110 L 68 111 L 68 112 L 69 113 L 68 113 L 69 114 L 70 115 L 71 116 L 71 115 L 70 115 L 69 116 L 68 117 L 67 117 L 67 118 L 66 119 L 66 118 L 65 117 L 66 116 L 67 117 L 68 118 L 69 117 L 70 117 L 71 117 L 72 118 L 71 119 L 70 120 L 69 119 L 68 119 L 67 120 L 67 119 L 67 120 L 66 120 L 66 121 L 65 122 L 64 121 L 65 120 L 64 120 L 65 120 L 64 121 L 65 122 L 65 121 L 65 121 L 65 122 L 64 123 L 63 123 L 63 124 L 64 124 L 64 125 L 65 126 L 64 127 L 64 128 L 65 128 L 64 128 L 65 128 L 66 129 L 66 128 L 65 127 L 66 127 L 66 128 L 67 129 L 68 128 L 67 128 L 67 127 L 66 126 L 65 126 L 66 126 L 66 125 L 65 125 L 64 126 L 65 127 L 65 128 L 64 129 L 63 130 L 62 129 L 63 128 L 63 128 L 62 128 L 62 129 L 62 129 L 62 128 L 62 127 L 62 126 L 62 125 L 63 126 L 62 127 L 61 127 L 62 126 L 63 127 L 64 128 L 64 128 L 65 129 L 64 128 L 63 129 L 62 130 L 61 131 L 62 132 L 63 131 L 62 131 L 63 130 L 63 130 L 63 129 L 62 130 L 62 129 L 63 128 L 64 127 L 65 126 L 66 125 L 67 125 L 66 124 L 67 125 L 67 124 L 67 125 L 67 125 L 66 124 L 65 123 L 66 124 L 65 124 L 66 125 L 66 126 L 67 127 L 67 127 L 68 127 L 68 127 L 67 127 L 68 126 L 67 125 L 67 125 L 67 124 L 68 124 L 67 125 L 67 125 L 67 124 L 68 123 L 68 124 L 69 124 L 69 125 L 68 126 L 68 125 L 67 126 L 68 126 L 69 126 L 68 125 L 68 124 L 69 124 L 68 124 L 69 124 L 69 125 L 68 125 L 69 125 L 69 124 L 70 125 L 71 124 L 71 124 L 72 125 L 71 126 L 71 125 L 71 125 L 71 124 L 70 123 L 69 122 L 70 123 L 69 122 L 69 123 L 69 122 L 68 122 L 68 123 L 69 123 L 70 122 L 70 123 L 71 123 L 72 124 L 71 125 L 71 126 L 72 125 L 72 124 L 73 125 L 72 124 L 71 123 L 71 124 L 70 125 L 69 124 L 69 124 L 69 124 L 68 125 L 67 125 L 66 124 L 66 125 L 66 126 L 66 126 L 65 127 L 64 128 L 63 128 L 63 129 L 64 128 L 64 127 L 65 126 L 64 127 L 65 128 L 65 129 L 65 129 L 66 129 L 67 130 L 67 129 L 68 130 L 68 131 L 68 132 L 68 132 L 68 131 L 67 130 L 68 131 L 68 131 L 67 131 L 66 132 L 66 132 L 66 133 L 65 134 L 65 134 L 65 134 L 64 134 L 65 133 L 64 133 L 63 132 L 62 132 L 63 133 L 62 134 L 63 135 L 64 134 L 65 134 L 66 134 L 65 135 L 64 134 L 63 135 L 64 135 L 63 135 L 62 135 L 63 134 L 63 135 L 62 134 L 61 134 L 61 133 L 60 132 L 61 131 L 60 131 L 61 131 L 61 132 L 60 133 L 60 134 L 61 133 L 60 133 L 61 133 L 61 132 L 62 133 L 61 134 L 61 133 L 61 133 L 62 133 L 63 133 L 64 132 L 63 131 L 63 131 L 63 131 L 62 132 L 62 131 L 63 132 L 64 132 L 63 132 L 64 133 L 64 132 L 64 132 L 64 131 L 63 132 L 63 133 L 62 132 L 63 131 L 62 130 L 63 131 L 64 130 L 64 131 L 63 131 L 62 132 L 63 133 L 64 133 L 64 132 L 65 132 L 65 132 L 66 132 L 65 132 L 64 131 L 64 132 L 65 133 L 66 133 L 66 132 L 65 132 L 64 133 L 64 134 L 63 135 L 63 136 L 64 135 L 65 135 L 64 134 L 65 135 L 65 134 L 66 135 L 65 135 L 65 135 L 65 136 L 64 136 L 64 135 L 63 134 L 63 135 L 62 136 L 62 137 L 62 137 L 63 138 L 63 139 L 62 139 L 63 139 L 63 138 L 63 138 L 64 137 L 64 138 L 64 138 L 64 138 L 63 137 L 63 136 L 63 135 L 63 136 L 64 136 L 63 135 L 63 135 L 62 135 L 62 135 L 61 136 L 60 135 L 59 136 L 59 136 L 60 137 L 59 138 L 60 138 L 59 138 L 60 138 L 61 139 L 60 140 L 60 141 L 61 142 L 60 141 L 60 140 L 60 140 L 59 139 L 60 139 L 59 139 L 59 140 L 60 139 L 59 139 L 59 138 L 60 139 L 60 139 L 60 140 L 59 139 L 60 139 L 59 139 L 59 140 L 58 141 L 59 141 L 58 142 L 58 143 L 57 143 L 57 144 L 57 144 L 58 144 L 58 145 L 59 144 L 59 144 L 58 143 L 58 143 L 57 144 L 57 143 L 57 143 L 57 142 L 56 143 L 56 143 L 56 142 L 55 143 L 54 142 L 54 143 L 53 143 L 53 144 L 53 145 L 54 145 L 54 145 L 54 145 L 53 144 L 52 144 L 53 143 L 54 143 L 53 142 L 52 141 L 51 141 L 52 140 L 53 140 L 52 141 L 53 140 L 54 141 L 54 142 L 53 142 L 53 142 L 54 141 L 55 142 L 55 143 L 54 142 L 53 142 L 54 143 L 53 144 L 54 144 L 54 144 L 54 143 L 53 142 L 52 143 L 51 144 L 50 143 L 50 143 L 51 142 L 50 141" />
 <text fill="DARKMAGENTA" x="180.0" y="2.0" > id:9 ln:0 </text>
 <path stroke="DARKMAGENTA" fill="white" d="" />
</svg>
